<?xml version="1.0" encoding="UTF-8"?>
<svg version="1.1" xmlns="http://www.w3.org/2000/svg" width="2838" height="1566">
<path d="M0 0 C1.35991939 -0.00490829 1.35991939 -0.00490829 2.74731189 -0.00991574 C3.7414743 -0.00843212 4.73563671 -0.00694849 5.75992525 -0.00541991 C6.82184333 -0.00777214 7.88376142 -0.01012437 8.97785884 -0.01254788 C12.56624726 -0.01924951 16.15459956 -0.01877931 19.74299371 -0.01836985 C22.3296942 -0.02166775 24.91639417 -0.02539316 27.50309348 -0.02951133 C33.88596662 -0.03884289 40.26883281 -0.04276031 46.65171192 -0.0450303 C54.29495451 -0.04799091 61.93818788 -0.05668748 69.58142563 -0.06544458 C88.0564306 -0.08629545 106.53143717 -0.09675966 125.00645116 -0.10557419 C133.74478844 -0.10977965 142.48312503 -0.11500177 151.22146173 -0.12025872 C181.12812592 -0.13814918 211.03479031 -0.15314577 240.94145906 -0.16057891 C242.81924064 -0.16105367 244.69702221 -0.16152955 246.57480379 -0.16200657 C247.5060228 -0.16224294 248.43724181 -0.16247932 249.39667957 -0.16272286 C254.11476858 -0.16392407 258.83285759 -0.16513952 263.55094659 -0.16636485 C264.95542971 -0.16672507 264.95542971 -0.16672507 266.38828622 -0.16709258 C296.75081125 -0.17498672 327.11329723 -0.19842079 357.47580521 -0.23092079 C389.56955784 -0.26521126 421.66328761 -0.2849293 453.75705886 -0.28822315 C457.27958581 -0.28864069 460.80211274 -0.28912026 464.32463968 -0.28964633 C465.19199795 -0.28976952 466.05935622 -0.28989271 466.95299807 -0.29001964 C480.91691742 -0.2923526 494.88079145 -0.30801788 508.84469463 -0.32848817 C522.87835269 -0.34873448 536.91195626 -0.35422913 550.94562621 -0.34471754 C559.28419388 -0.33949798 567.62258026 -0.34540149 575.96112187 -0.36725221 C582.18598969 -0.3823322 588.41067328 -0.37653232 594.63554005 -0.36258169 C597.15510031 -0.36019339 599.67467789 -0.364592 602.19421156 -0.37641034 C605.61676764 -0.39147189 609.0384112 -0.38189526 612.46094453 -0.36618346 C613.44105994 -0.37640567 614.42117535 -0.38662787 615.43099123 -0.39715984 C623.23902412 -0.31883334 629.58537352 1.73403323 636.23795831 5.81630117 C643.62941253 13.41307356 646.79354811 21.1918506 646.82389581 31.67567617 C646.83055261 32.48691945 646.83720941 33.29816274 646.84406793 34.13398916 C646.85415569 35.84512754 646.85888616 37.55630495 646.85856378 39.26747304 C646.8629222 41.85734221 646.89924011 44.44548455 646.93717706 47.03505117 C647.00605121 57.24122721 646.2471313 65.00274148 640.80045831 73.87880117 C635.05579662 79.46820173 627.91256208 83.76372818 620.11295831 85.72645742 C613.50466584 87.40875139 608.79745917 89.71086994 604.48795831 95.12880117 C600.75256859 101.66346104 598.01764979 108.55739935 599.48795831 116.12880117 C601.58720619 123.05983744 605.30664499 129.69832046 611.69889581 133.41395742 C618.19999013 136.42692306 624.06953977 137.26222935 631.21061456 137.30458242 C632.73471658 137.32780271 634.25880513 137.3519209 635.78288019 137.37684804 C638.15658574 137.41171603 640.52980116 137.4411833 642.9037298 137.4547289 C657.98019865 137.55731139 669.81703495 139.76693872 681.48795831 150.12880117 C687.15610051 155.97909538 690.45694223 162.63640187 693.48795831 170.12880117 C694.01196222 171.33729726 694.01196222 171.33729726 694.54655206 172.57020742 C695.61090843 175.46296021 696.16278765 178.28928123 696.73795831 181.31630117 C698.29099045 188.29702215 700.98176439 194.70376915 706.17545831 199.77723867 C707.48795831 201.12880117 707.48795831 201.12880117 707.48795831 203.12880117 C708.06159112 203.39821523 708.63522394 203.66762929 709.22623956 203.94520742 C711.53905707 205.15554197 713.55429123 206.54787008 715.67545831 208.06630117 C728.82584451 216.91959893 746.84504644 216.82340141 761.98795831 214.00380117 C768.79064882 212.34460836 775.18229808 209.52083257 780.13248956 204.44130117 C781.48795831 203.12880117 781.48795831 203.12880117 783.48795831 203.12880117 C783.75737237 202.55516835 784.02678644 201.98153554 784.30436456 201.39051992 C785.90597997 198.3300073 787.92712894 195.6282565 789.95280206 192.83583242 C794.17801283 185.38526991 794.86110531 178.17712513 795.23795831 169.75380117 C795.85569123 160.63230636 796.99073925 153.98766966 803.48795831 147.12880117 C804.14924737 146.39919179 804.81053644 145.66958242 805.49186456 144.91786367 C813.81922738 136.66718007 824.69854567 132.0326104 836.32926691 131.97108632 C837.34979654 131.96346524 837.34979654 131.96346524 838.39094293 131.95569021 C839.86630608 131.94500835 841.34168521 131.93637964 842.81707132 131.92957097 C845.16526519 131.91771794 847.51328039 131.89824335 849.86140192 131.87645131 C856.53747698 131.81509134 863.21353702 131.76108686 869.88981378 131.72743398 C873.97948725 131.70627003 878.06883911 131.67078826 882.15832651 131.62667638 C883.7041427 131.61267529 885.25001585 131.6038306 886.79589212 131.600622 C900.65252388 131.56884948 913.98970402 130.80331914 925.48795831 122.12880117 C926.03065362 121.57192617 926.57334894 121.01505117 927.13248956 120.44130117 C928.48795831 119.12880117 928.48795831 119.12880117 930.48795831 119.12880117 C930.75737237 118.55516835 931.02678644 117.98153554 931.30436456 117.39051992 C932.51469911 115.07770241 933.90702723 113.06246825 935.42545831 110.94130117 C942.29924497 100.73121317 942.618815 90.00142026 942.66373956 78.05458242 C942.68694194 75.67111008 942.71105944 73.28764652 942.73600519 70.90419179 C942.77103255 67.17634906 942.80043114 63.44882911 942.81388605 59.72084218 C942.82947291 56.1025321 942.86974977 52.48514481 942.91373956 48.86708242 C942.91183115 47.76979314 942.90992273 46.67250386 942.90795648 45.5419634 C943.1060161 32.83971964 947.05363796 22.62866733 955.48795831 13.12880117 C963.11719061 5.73710907 973.46271596 0.00959639 984.26059186 0 C985.22546244 -0.00327219 986.19033302 -0.00654439 987.1844421 -0.00991574 C988.77349542 -0.0076903 988.77349542 -0.0076903 990.39465082 -0.00541991 C991.52519303 -0.00777214 992.65573525 -0.01012437 993.82053632 -0.01254788 C997.64238505 -0.01925169 1001.46419989 -0.01877924 1005.28605402 -0.01836985 C1008.04044688 -0.02111895 1010.79483702 -0.02535514 1013.54922807 -0.02951133 C1020.3469431 -0.03884439 1027.14465161 -0.04276057 1033.94237225 -0.0450303 C1042.08222681 -0.04799055 1050.22207272 -0.05668694 1058.36192275 -0.06544458 C1078.03825618 -0.08629762 1097.71459112 -0.09676025 1117.39093303 -0.10557419 C1126.69798538 -0.1097796 1136.00503708 -0.11500174 1145.31208888 -0.12025872 C1177.16640552 -0.13814994 1209.02072235 -0.15314616 1240.87504327 -0.16057891 C1242.87521772 -0.16105366 1244.87539216 -0.16152955 1246.8755666 -0.16200657 C1247.86748153 -0.16224294 1248.85939647 -0.16247932 1249.88136943 -0.16272286 C1254.90697067 -0.16392407 1259.93257192 -0.16513951 1264.95817316 -0.16636485 C1265.95552226 -0.166605 1266.95287137 -0.16684515 1267.98044318 -0.16709258 C1300.3175617 -0.17498567 1332.65464355 -0.19841718 1364.99174605 -0.23092079 C1399.17400893 -0.26521638 1433.35625034 -0.28492981 1467.53853071 -0.28822315 C1471.29082812 -0.28864069 1475.04312551 -0.28912025 1478.79542291 -0.28964633 C1479.71935551 -0.28976952 1480.6432881 -0.28989271 1481.59521865 -0.29001964 C1496.46625891 -0.29235204 1511.33725658 -0.3080143 1526.20828166 -0.32848817 C1541.15606273 -0.34874123 1556.10379265 -0.35422594 1571.0515849 -0.34471754 C1579.93184338 -0.3395005 1588.81193156 -0.3453896 1597.69216553 -0.36725221 C1603.62666653 -0.3807583 1609.56105028 -0.37968501 1615.49555244 -0.36685025 C1618.87532639 -0.35995215 1622.25451002 -0.36150601 1625.63429737 -0.37641034 C1629.28133529 -0.39149746 1632.92751972 -0.38187727 1636.57453668 -0.36618346 C1637.61517623 -0.37640567 1638.65581577 -0.38662787 1639.72798985 -0.39715984 C1652.12661271 -0.28077203 1662.25167089 3.92849543 1671.48795831 12.12880117 C1679.09016292 19.97531102 1684.54649412 30.32717635 1684.66496027 41.36537343 C1684.6777955 42.41068731 1684.69063074 43.45600118 1684.70385492 44.53299123 C1684.71124185 45.65902257 1684.71862878 46.78505391 1684.72623956 47.94520742 C1684.73431131 49.11204564 1684.74238306 50.27888387 1684.7506994 51.48108083 C1684.76453004 53.95323882 1684.77525675 56.42541583 1684.78312433 58.8976 C1684.79462332 61.41425885 1684.81504175 63.93089371 1684.84464777 66.44740468 C1684.88753328 70.09267346 1684.9035253 73.73721695 1684.91373956 77.38270742 C1684.94000169 79.0505 1684.94000169 79.0505 1684.96679437 80.75198537 C1684.93008773 94.14422494 1679.79171805 104.53541913 1670.86295831 114.31630117 C1666.10471157 118.91838923 1660.46833653 121.44617437 1654.48795831 124.12880117 C1653.15110245 124.78837575 1651.8161933 125.45203382 1650.48795831 126.12880117 C1650.48795831 126.45880117 1650.48795831 126.78880117 1650.48795831 127.12880117 C1649.66553644 127.27575429 1648.84311456 127.42270742 1647.99577081 127.57411367 C1639.68137147 129.24467427 1631.9223262 131.58935348 1625.83952081 137.81630117 C1624.48795831 139.12880117 1624.48795831 139.12880117 1622.48795831 139.12880117 C1622.21854425 139.70243398 1621.94913019 140.27606679 1621.67155206 140.86708242 C1620.46121751 143.17989993 1619.0688894 145.19513408 1617.55045831 147.31630117 C1611.87693288 155.74356212 1610.53381968 164.57059837 1610.24894464 174.5863207 C1609.78260315 189.13431589 1605.90757933 199.16377105 1595.30045831 209.31630117 C1587.11702365 216.37433989 1578.12065922 219.24949352 1567.49967706 219.33973867 C1565.65917401 219.3678487 1563.81867936 219.39651333 1561.97819269 219.42567617 C1559.09335194 219.46659244 1556.20866101 219.50349418 1553.32365167 219.53016835 C1530.6483338 219.6136334 1530.6483338 219.6136334 1510.48795831 229.12880117 C1509.945263 229.68567617 1509.40256769 230.24255117 1508.84342706 230.81630117 C1507.48795831 232.12880117 1507.48795831 232.12880117 1505.48795831 232.12880117 C1505.21854425 232.70243398 1504.94913019 233.27606679 1504.67155206 233.86708242 C1503.46121751 236.17989993 1502.0688894 238.19513408 1500.55045831 240.31630117 C1494.26432736 249.65350544 1493.36647109 259.56184615 1493.31217706 270.57801992 C1493.28897087 272.41461982 1493.26485321 274.25120839 1493.23991144 276.08778554 C1493.20494464 278.94650478 1493.17551252 281.804807 1493.16203058 284.66371328 C1493.07093738 300.8656894 1491.68621886 313.51581375 1480.48795831 326.12880117 C1473.06247172 333.32309129 1462.75170663 339.24432756 1452.1930002 339.25908643 C1451.33675448 339.26271078 1450.48050875 339.26633512 1449.59831619 339.2700693 C1448.66234395 339.26900105 1447.72637172 339.2679328 1446.76203668 339.26683217 C1445.76394302 339.26965345 1444.76584936 339.27247473 1443.73751044 339.27538151 C1440.38299698 339.28373422 1437.02851649 339.28506637 1433.67399347 339.28651601 C1431.27250326 339.29118391 1428.87101394 339.29632743 1426.46952569 339.30191213 C1421.29127035 339.31319942 1416.1130181 339.32168147 1410.93475473 339.32803136 C1402.73936328 339.33837055 1394.54401221 339.35893965 1386.34864557 339.38115102 C1383.54243423 339.38863095 1380.73622272 339.39604474 1377.93001115 339.40343839 C1376.8779727 339.40621424 1376.8779727 339.40621424 1375.80468095 339.40904617 C1367.82069271 339.42997345 1359.83669999 339.44879918 1351.85270441 339.46669179 C1351.12294752 339.46832997 1350.39319064 339.46996816 1349.64131992 339.47165598 C1337.83669492 339.49789546 1326.0320668 339.51656375 1314.22742505 339.5332837 C1302.09312116 339.55074724 1289.95887811 339.57964071 1277.82462287 339.61817306 C1271.01777289 339.63940421 1264.21100032 339.65511929 1257.40411508 339.65698034 C1250.99368085 339.65913505 1244.58342673 339.67508848 1238.17304742 339.70137006 C1235.82782617 339.708534 1233.48258302 339.71067822 1231.1373533 339.70726758 C1207.52279471 339.40643336 1207.52279471 339.40643336 1186.48795831 349.12880117 C1185.945263 349.68567617 1185.40256769 350.24255117 1184.84342706 350.81630117 C1183.48795831 352.12880117 1183.48795831 352.12880117 1181.48795831 352.12880117 C1181.21854425 352.70243398 1180.94913019 353.27606679 1180.67155206 353.86708242 C1179.46121751 356.17989993 1178.0688894 358.19513408 1176.55045831 360.31630117 C1170.56525219 369.20652197 1169.33826825 378.58431977 1169.34611261 389.16859609 C1169.34090097 390.32627492 1169.34090097 390.32627492 1169.33558404 391.50734121 C1169.328271 393.17255299 1169.3229021 394.83777424 1169.31929338 396.50299817 C1169.31206825 399.14912137 1169.29635654 401.79506545 1169.2779516 404.44113332 C1169.22577062 411.96110219 1169.17756339 419.48096964 1169.16203058 427.00111562 C1169.15188428 431.61299071 1169.12239641 436.22440807 1169.08071077 440.83610135 C1169.06849358 442.58174136 1169.06326232 444.32744625 1169.0655092 446.07312757 C1169.08031357 461.33046218 1166.98346159 473.30735353 1156.48795831 485.12880117 C1148.20792627 493.15103001 1137.74653127 498.21961671 1126.19743097 498.28651601 C1124.28361124 498.30190923 1124.28361124 498.30190923 1122.33112848 498.31761342 C1121.65096296 498.32105134 1120.97079744 498.32448926 1120.27002084 498.32803136 C1118.12344919 498.3398966 1115.97707192 498.35937461 1113.83057916 498.38115102 C1107.72799616 498.44246603 1101.62542926 498.49647729 1095.52262628 498.53016835 C1091.78306606 498.55136182 1088.04385559 498.58686602 1084.30449808 498.63092595 C1082.89265754 498.64490527 1081.48075506 498.65376659 1080.06884897 498.65698034 C1066.51295931 498.69106341 1053.61475267 499.73452016 1042.48795831 508.12880117 C1041.945263 508.68567617 1041.40256769 509.24255117 1040.84342706 509.81630117 C1039.48795831 511.12880117 1039.48795831 511.12880117 1037.48795831 511.12880117 C1037.21854425 511.70243398 1036.94913019 512.27606679 1036.67155206 512.86708242 C1035.46121751 515.17989993 1034.0688894 517.19513408 1032.55045831 519.31630117 C1026.66875901 528.05277647 1025.37442717 537.19654153 1025.34611261 547.61781484 C1025.34090097 548.68771154 1025.34090097 548.68771154 1025.33558404 549.77922231 C1025.32827642 551.31674797 1025.32290469 552.85428385 1025.31929338 554.39182264 C1025.31206003 556.83632229 1025.29634244 559.28062896 1025.2779516 561.72506887 C1025.22580954 568.67154939 1025.17757268 575.61792022 1025.16203058 582.56459218 C1025.15187505 586.8263561 1025.12236504 591.0876259 1025.08071077 595.34919339 C1025.06850681 596.96085839 1025.06325983 598.57259347 1025.0655092 600.1843031 C1025.08110941 615.01187051 1022.59130027 626.74905835 1012.48795831 638.12880117 C1004.32236259 646.04015673 993.88829742 651.21709125 982.47282159 651.28651601 C980.64909524 651.30190923 980.64909524 651.30190923 978.78852594 651.31761342 C977.47504175 651.32491475 976.16155756 651.33221608 974.80827081 651.33973867 C973.43504299 651.35272097 972.06182284 651.36653909 970.68861139 651.38115102 C964.87277482 651.44244025 959.05695498 651.49645533 953.240888 651.53016835 C949.67638337 651.55137879 946.1122445 651.58689576 942.54795206 651.63092595 C940.55766692 651.65159585 938.56724219 651.65708946 936.57685602 651.66209584 C923.63913295 651.83392751 909.38808039 653.0222626 899.84342706 662.81630117 C898.48795831 664.12880117 898.48795831 664.12880117 896.48795831 664.12880117 C896.21854425 664.70243398 895.94913019 665.27606679 895.67155206 665.86708242 C894.46121751 668.17989993 893.0688894 670.19513408 891.55045831 672.31630117 C884.67667165 682.52638916 884.35710163 693.25618207 884.31217706 705.20301992 C884.28897469 707.58649225 884.26485719 709.96995582 884.23991144 712.35341054 C884.20488407 716.08125327 884.17548548 719.80877322 884.16203058 723.53676015 C884.14644372 727.15507023 884.10616685 730.77245752 884.06217706 734.39051992 C884.06408548 735.48780919 884.0659939 736.58509847 884.06796014 737.71563894 C883.86990052 750.41788269 879.92227866 760.62893501 871.48795831 770.12880117 C863.43711066 777.9289814 853.02971138 783.21430277 841.74821222 783.28651601 C840.01457925 783.30190923 840.01457925 783.30190923 838.2459234 783.31761342 C836.99806055 783.32491475 835.75019769 783.33221608 834.46452081 783.33973867 C832.48804304 783.36063023 830.5115653 783.38153968 828.53509843 783.40343839 C823.67651815 783.45631732 818.81792823 783.50052244 813.95914972 783.53016835 C811.23475748 783.54723209 808.51063627 783.57209187 805.78638971 783.60502797 C803.23085801 783.63559611 800.6751641 783.6553239 798.11945856 783.66209584 C785.33273112 783.84051328 771.25862074 785.1551048 761.84342706 794.81630117 C760.48795831 796.12880117 760.48795831 796.12880117 758.48795831 796.12880117 C758.21854425 796.70243398 757.94913019 797.27606679 757.67155206 797.86708242 C756.46121751 800.17989993 755.0688894 802.19513408 753.55045831 804.31630117 C746.40667213 814.92743723 746.3538632 826.11608527 746.31217706 838.51551992 C746.29491356 840.49247982 746.27762581 842.46943982 746.25897443 844.44638711 C746.21372168 849.28865796 746.17571028 854.13081272 746.16203058 858.97328359 C746.15383689 861.69710246 746.13510872 864.42047023 746.10510004 867.14413625 C746.07725368 869.69625028 746.06399543 872.24858115 746.06796014 874.80084401 C745.88406231 887.93440623 742.24055793 898.27044608 733.48795831 908.12880117 C725.6673724 915.70588899 715.31135301 921.2077525 704.29899347 921.28651601 C702.74554727 921.30190923 702.74554727 921.30190923 701.16071832 921.31761342 C700.04409814 921.32491475 698.92747797 921.33221608 697.77702081 921.33973867 C695.39289967 921.36783294 693.00878518 921.39649754 690.62467706 921.42567617 C686.88167954 921.46671674 683.13880298 921.50361785 679.39567316 921.53016835 C654.08625649 921.08259651 654.08625649 921.08259651 631.48795831 931.12880117 C630.945263 931.68567617 630.40256769 932.24255117 629.84342706 932.81630117 C628.48795831 934.12880117 628.48795831 934.12880117 626.48795831 934.12880117 C626.21854425 934.70243398 625.94913019 935.27606679 625.67155206 935.86708242 C624.46121751 938.17989993 623.0688894 940.19513408 621.55045831 942.31630117 C617.75759233 948.0010083 616.05713678 953.49572411 614.59733331 960.12489492 C611.61089783 973.67709151 607.77310461 985.20350102 596.13639581 993.88270742 C583.64530163 1001.79373373 572.50186684 1002.70874966 558.12988889 1002.63216573 C556.15092627 1002.63634157 554.1719667 1002.64226901 552.19301394 1002.64978319 C546.74946729 1002.66536359 541.30620432 1002.65603753 535.86266228 1002.64267138 C529.94255303 1002.63253012 524.02248747 1002.64556205 518.10238439 1002.65564471 C507.72476675 1002.67010081 497.3472147 1002.66978254 486.96959627 1002.65945607 C475.83625796 1002.64844515 464.70296841 1002.64613442 453.56962717 1002.65440542 C452.86603565 1002.65492211 452.16244413 1002.6554388 451.43753165 1002.65597114 C448.57183943 1002.65810426 445.70614726 1002.6602991 442.84045514 1002.66257225 C416.15710076 1002.68372329 389.47377907 1002.68516715 362.79041994 1002.67398244 C361.60470229 1002.67348567 361.60470229 1002.67348567 360.39503074 1002.67297886 C359.20741411 1002.67248128 359.20741411 1002.67248128 357.99580522 1002.67197365 C333.87765054 1002.66188212 309.75950936 1002.65927479 285.64135301 1002.66406423 C284.0264713 1002.66437415 282.41158958 1002.66468277 280.79670787 1002.66499011 C274.30720306 1002.66623197 267.81769827 1002.66750664 261.32819348 1002.66882916 C243.18709449 1002.67249726 225.04599546 1002.67477962 206.90489614 1002.67597371 C206.07878079 1002.6760283 205.25266544 1002.67608288 204.40151629 1002.67613912 C178.07646198 1002.67777631 151.75141237 1002.67326824 125.42635953 1002.6645754 C124.14555116 1002.6641539 124.14555116 1002.6641539 122.83886788 1002.66372389 C108.97243169 1002.65914407 95.1059956 1002.65426623 81.23955952 1002.6493632 C26.2457673 1002.62993867 -28.74798597 1002.63083857 -83.74177802 1002.65028554 C-97.60001842 1002.65517029 -111.45825884 1002.66001449 -125.31649935 1002.6645754 C-126.16979846 1002.66485719 -127.02309756 1002.66513898 -127.90225422 1002.66542932 C-154.19889889 1002.674054 -180.49554033 1002.67771116 -206.79218638 1002.67597371 C-207.61770901 1002.67591938 -208.44323165 1002.67586504 -209.29377012 1002.67580906 C-227.41530986 1002.67455914 -245.53684925 1002.67202459 -263.65838865 1002.6683317 C-270.14241664 1002.66701513 -276.62644463 1002.66576281 -283.11047263 1002.66452886 C-284.72353581 1002.6642193 -286.33659899 1002.66390438 -287.94966217 1002.66358407 C-312.06080372 1002.65880948 -336.17193004 1002.66287592 -360.28306969 1002.67297886 C-361.07346533 1002.67331004 -361.86386097 1002.67364122 -362.67820799 1002.67398244 C-363.4671461 1002.67431317 -364.2560842 1002.6746439 -365.06892952 1002.67498465 C-391.67622768 1002.68601667 -418.28348663 1002.68196092 -444.89077919 1002.66085947 C-447.74795591 1002.65865005 -450.60513267 1002.65650323 -453.46230948 1002.65440542 C-454.51411055 1002.65362417 -454.51411055 1002.65362417 -455.58716013 1002.65282715 C-466.69009339 1002.64493763 -477.79297789 1002.65043049 -488.89590674 1002.66148144 C-499.81336724 1002.67206274 -510.73075467 1002.66801094 -521.64820648 1002.64942509 C-527.48823026 1002.6398887 -533.32806918 1002.63670055 -539.1680873 1002.65104902 C-544.4811863 1002.66397004 -549.79393647 1002.65848125 -555.10701005 1002.63832638 C-557.01680602 1002.63429862 -558.92663087 1002.63695995 -560.8364039 1002.64715013 C-576.35601586 1002.72408172 -588.46582221 1000.82386491 -600.51204169 990.12880117 C-608.43945989 981.94662662 -613.58427538 971.51329601 -613.68904364 960.08192617 C-613.70829649 958.24851674 -613.70829649 958.24851674 -613.72793829 956.37806875 C-613.73532523 955.05831044 -613.74271216 953.73855214 -613.75032294 952.37880117 C-613.75439847 951.70239583 -613.75847399 951.0259905 -613.76267302 950.32908803 C-613.78351007 946.74263489 -613.79781697 943.15621964 -613.8072077 939.56971914 C-613.81821415 935.896092 -613.85255249 932.2230803 -613.8923794 928.54966909 C-613.91875513 925.6994495 -613.92691829 922.84937126 -613.93048918 919.99904042 C-613.9376269 917.99630712 -613.96398143 915.99367126 -613.99087775 913.99110585 C-613.95944021 900.58583822 -610.45321834 890.19955707 -601.51204169 880.12880117 C-593.69145577 872.55171335 -583.33543639 867.04984983 -572.32307684 866.97108632 C-570.76963065 866.9556931 -570.76963065 866.9556931 -569.1848017 866.93998891 C-568.06818152 866.93268758 -566.95156134 866.92538625 -565.80110419 866.91786367 C-563.41698304 866.88976939 -561.03286856 866.8611048 -558.64876044 866.83192617 C-554.90576292 866.7908856 -551.16288636 866.75398449 -547.41975653 866.72743398 C-522.11033986 867.17500582 -522.11033986 867.17500582 -499.51204169 857.12880117 C-498.69799872 856.29348867 -498.69799872 856.29348867 -497.86751044 855.44130117 C-496.51204169 854.12880117 -496.51204169 854.12880117 -494.51204169 854.12880117 C-494.10792059 853.26835195 -494.10792059 853.26835195 -493.69563544 852.39051992 C-492.48530089 850.07770241 -491.09297277 848.06246825 -489.57454169 845.94130117 C-482.97934064 836.14501473 -482.38524828 825.85055486 -482.33626044 814.36708242 C-482.3130564 812.25704646 -482.28893883 810.14702039 -482.26399481 808.03700429 C-482.22899377 804.74372438 -482.19958056 801.45080838 -482.18611395 798.15736562 C-482.10168229 780.84887535 -481.5259693 767.66050255 -469.51204169 754.12880117 C-460.89094897 745.77613075 -450.3434523 741.03166035 -438.39534247 740.97108632 C-437.33092177 740.96346524 -437.33092177 740.96346524 -436.24499762 740.95569021 C-434.70579118 740.94500596 -433.16656939 740.93637818 -431.62734091 740.92957097 C-429.17833549 740.91772328 -426.72950181 740.89825021 -424.28056586 740.87645131 C-417.31774512 740.81507162 -410.35493889 740.76107016 -403.3919245 740.72743398 C-399.12719354 740.70628295 -394.86277174 740.67081107 -390.59821951 740.62667638 C-388.9854157 740.61266574 -387.37255713 740.60382835 -385.75969565 740.600622 C-371.71093685 740.56976695 -358.18338393 739.93390022 -346.51204169 731.12880117 C-345.96934638 730.57192617 -345.42665106 730.01505117 -344.86751044 729.44130117 C-343.51204169 728.12880117 -343.51204169 728.12880117 -341.51204169 728.12880117 C-341.24262763 727.55516835 -340.97321356 726.98153554 -340.69563544 726.39051992 C-339.48530089 724.07770241 -338.09297277 722.06246825 -336.57454169 719.94130117 C-328.85214331 708.47071431 -329.28196802 695.79399542 -329.17024481 682.43934804 C-328.82943635 668.32353723 -324.63015522 656.99415293 -314.37922919 647.06239492 C-306.33389076 640.38678256 -296.98240011 636.03485528 -286.49690497 635.97108632 C-285.2810874 635.96082418 -284.06526984 635.95056203 -282.81260931 635.93998891 C-281.49912512 635.93268758 -280.18564093 635.92538625 -278.83235419 635.91786367 C-277.45912636 635.90488137 -276.08590621 635.89106325 -274.71269476 635.87645131 C-268.8968582 635.81516208 -263.08103836 635.76114701 -257.26497138 635.72743398 C-253.70046675 635.70622354 -250.13632787 635.67070657 -246.57203543 635.62667638 C-244.5817503 635.60600648 -242.59132556 635.60051287 -240.60093939 635.59550649 C-227.66321633 635.42367483 -213.41216377 634.23533974 -203.86751044 624.44130117 C-202.51204169 623.12880117 -202.51204169 623.12880117 -200.51204169 623.12880117 C-200.24262763 622.55516835 -199.97321356 621.98153554 -199.69563544 621.39051992 C-198.48530089 619.07770241 -197.09297277 617.06246825 -195.57454169 614.94130117 C-189.88228673 606.48622003 -188.40157446 597.57305322 -188.37019598 587.46595937 C-188.36316153 586.18385076 -188.35612708 584.90174215 -188.34887946 583.58078176 C-188.34706357 582.90486297 -188.34524767 582.22894418 -188.34337676 581.532543 C-188.33612811 579.39047667 -188.32039974 577.24862863 -188.30203497 575.10663015 C-188.24996491 569.02038282 -188.20167331 562.93426049 -188.18611395 556.84779531 C-188.17594126 553.11119238 -188.14639047 549.37515046 -188.10479414 545.63877088 C-188.09261467 544.22806937 -188.08733858 542.81728821 -188.08959258 541.40653592 C-188.10685584 527.07309455 -185.1398652 515.97295113 -175.51204169 505.12880117 C-167.34644597 497.2174456 -156.9123808 492.04051108 -145.49690497 491.97108632 C-144.2810874 491.96082418 -143.06526984 491.95056203 -141.81260931 491.93998891 C-140.49912512 491.93268758 -139.18564093 491.92538625 -137.83235419 491.91786367 C-136.45912636 491.90488137 -135.08590621 491.89106325 -133.71269476 491.87645131 C-127.8968582 491.81516208 -122.08103836 491.76114701 -116.26497138 491.72743398 C-112.70046675 491.70622354 -109.13632787 491.67070657 -105.57203543 491.62667638 C-103.5817503 491.60600648 -101.59132556 491.60051287 -99.60093939 491.59550649 C-86.66321633 491.42367483 -72.41216377 490.23533974 -62.86751044 480.44130117 C-61.51204169 479.12880117 -61.51204169 479.12880117 -59.51204169 479.12880117 C-59.24262763 478.55516835 -58.97321356 477.98153554 -58.69563544 477.39051992 C-57.48530089 475.07770241 -56.09297277 473.06246825 -54.57454169 470.94130117 C-48.83872509 462.42151504 -47.43586234 453.47759147 -47.33626044 443.30458242 C-47.31241278 442.02776601 -47.28856513 440.7509496 -47.26399481 439.43544179 C-47.22134381 436.79237201 -47.18992229 434.14909494 -47.17024481 431.50575429 C-46.85473081 416.89672227 -43.03339243 405.38483513 -32.37922919 395.06239492 C-23.96068467 388.07711515 -14.5422641 384.01327288 -3.6334101 383.99077016 C-2.94158286 383.98794888 -2.24975563 383.9851276 -1.53696394 383.98222083 C0.78108792 383.97388874 3.09909193 383.97253773 5.41715753 383.97108632 C7.07974129 383.96641678 8.74232378 383.96127299 10.40490472 383.95569021 C13.98709115 383.94441275 17.56926928 383.93597658 21.15146768 383.92957097 C26.82649824 383.91887436 32.50146951 383.89862224 38.17646539 383.87645131 C54.31509926 383.81459205 70.45373033 383.76061721 86.5924505 383.72743398 C95.50461262 383.70902914 104.41667597 383.6800158 113.32876539 383.63942927 C118.03970047 383.61844895 122.75051152 383.60291489 127.46149576 383.600622 C131.9021018 383.59845831 136.34245014 383.58241554 140.78297746 383.55623227 C142.40254354 383.54910154 144.02214107 383.54690762 145.64171922 383.55033475 C159.57701382 383.57508694 172.94624284 382.83610714 184.48795831 374.12880117 C185.03065362 373.57192617 185.57334894 373.01505117 186.13248956 372.44130117 C187.48795831 371.12880117 187.48795831 371.12880117 189.48795831 371.12880117 C189.75737237 370.55516835 190.02678644 369.98153554 190.30436456 369.39051992 C191.51469911 367.07770241 192.90702723 365.06246825 194.42545831 362.94130117 C201.72402341 352.10026179 201.68795915 340.25983794 201.73795831 327.56630117 C201.75858331 326.28432851 201.77920831 325.00235585 201.80045831 323.68153554 C201.85271454 310.74158638 200.46357329 298.70064498 192.48795831 288.12880117 C191.93108331 287.58610585 191.37420831 287.04341054 190.80045831 286.48426992 C189.48795831 285.12880117 189.48795831 285.12880117 189.48795831 283.12880117 C188.9143255 282.8593871 188.34069269 282.58997304 187.74967706 282.31239492 C185.43685955 281.10206036 183.4216254 279.70973225 181.30045831 278.19130117 C171.02941805 271.27647932 160.2408965 270.9792147 148.22387445 270.99749929 C146.9890439 270.99538357 145.75421335 270.99326786 144.48196369 270.99108803 C141.77804077 270.98717272 139.07418793 270.98506709 136.37026918 270.98605329 C131.9698434 270.98765128 127.56944016 270.9824327 123.1690191 270.9764269 C116.77943495 270.96832508 110.38985477 270.9633739 104.00026643 270.96013623 C93.89390775 270.95462934 83.78758262 270.93772129 73.68124139 270.91879445 C70.2205643 270.91243814 66.75988712 270.90612963 63.29920995 270.89981729 C62.00198833 270.89744164 62.00198833 270.89744164 60.6785602 270.89501801 C50.84020768 270.87709125 41.0018528 270.86086021 31.16349542 270.84584218 C30.26444538 270.84446631 29.36539534 270.84309044 28.43910136 270.84167287 C13.87533743 270.8197506 -0.68841781 270.80898794 -15.25219532 270.80147143 C-30.21839801 270.79339143 -45.18452642 270.77007325 -60.15068668 270.73351777 C-69.37397951 270.71153272 -78.59711942 270.70181585 -87.82043711 270.7080181 C-94.14570305 270.71120044 -100.47083867 270.69981162 -106.79606428 270.67712369 C-110.44114732 270.66449749 -114.08593991 270.65823532 -117.73103392 270.66954023 C-121.69187344 270.68166601 -125.6522336 270.66271479 -129.61303961 270.64105397 C-130.75226801 270.64949651 -131.89149641 270.65793905 -133.06524688 270.66663742 C-145.79009865 270.53843671 -155.99948904 266.57438503 -165.51204169 258.12880117 C-173.76900994 249.60648611 -178.59467216 239.08544812 -178.68904364 227.25575429 C-178.69561484 226.57218862 -178.70218604 225.88862294 -178.70895636 225.18434316 C-178.72863216 222.92624453 -178.74034366 220.66821248 -178.75032294 218.41005117 C-178.75439847 217.63435277 -178.75847399 216.85865438 -178.76267302 216.05944997 C-178.78351674 211.94780415 -178.79782167 207.83619147 -178.8072077 203.72450429 C-178.8182247 199.50610613 -178.85257415 195.28824236 -178.8923794 191.07003194 C-178.91871084 187.80290514 -178.92691441 184.53590202 -178.93048918 181.26867849 C-178.93531837 179.71555167 -178.94682577 178.16242898 -178.96552718 176.60940725 C-179.13108028 161.94108555 -176.48956255 150.36682733 -166.51204169 139.12880117 C-158.46119404 131.32862093 -148.05379476 126.04329956 -136.77229559 125.97108632 C-135.61654028 125.96082418 -134.46078497 125.95056203 -133.27000678 125.93998891 C-132.02214392 125.93268758 -130.77428107 125.92538625 -129.48860419 125.91786367 C-127.51212642 125.8969721 -125.53564867 125.87606266 -123.55918181 125.85416394 C-118.70060153 125.80128501 -113.84201161 125.75707989 -108.98323309 125.72743398 C-106.25884085 125.71037024 -103.53471964 125.68551046 -100.81047308 125.65257436 C-98.25494139 125.62200622 -95.69924747 125.60227843 -93.14354193 125.59550649 C-80.35681449 125.41708905 -66.28270412 124.10249753 -56.86751044 114.44130117 C-55.51204169 113.12880117 -55.51204169 113.12880117 -53.51204169 113.12880117 C-53.24262763 112.55516835 -52.97321356 111.98153554 -52.69563544 111.39051992 C-51.48530089 109.07770241 -50.09297277 107.06246825 -48.57454169 104.94130117 C-41.97934064 95.14501473 -41.38524828 84.85055486 -41.33626044 73.36708242 C-41.3130564 71.25704646 -41.28893883 69.14702039 -41.26399481 67.03700429 C-41.22899377 63.74372438 -41.19958056 60.45080838 -41.18611395 57.15736562 C-41.10168229 39.84887535 -40.5259693 26.66050255 -28.51204169 13.12880117 C-20.99439834 5.84522364 -10.66735048 0.01009617 0 0 Z " fill="#000000" transform="translate(1015.5120416879654,326.87119883298874)"/>
</svg>
