<?xml version="1.0" encoding="UTF-8"?>
<svg version="1.1" xmlns="http://www.w3.org/2000/svg" width="1000" height="1000">
<path d="M0 0 C7.09582526 0.01078393 7.09582526 0.01078393 10.2578125 2.94140625 C11.0621875 3.80765625 11.8665625 4.67390625 12.6953125 5.56640625 C15.03543006 6.23559776 17.29264464 6.61784364 19.70703125 6.9140625 C21.6953125 7.56640625 21.6953125 7.56640625 22.81958008 9.60717773 C23.10857178 10.25372314 23.39756348 10.90026855 23.6953125 11.56640625 C27.11153038 11.71180578 30.52695241 11.8005035 33.9453125 11.87890625 C34.91339844 11.92080078 35.88148438 11.96269531 36.87890625 12.00585938 C39.57077859 12.05227097 42.04482016 12.04701206 44.6953125 11.56640625 C46.0532439 9.91971932 47.38691891 8.25272229 48.6953125 6.56640625 C52.053384 5.79575808 55.38606113 5.82126375 58.8203125 5.81640625 C60.63548109 5.78331061 62.45059496 5.74700989 64.265625 5.70703125 C65.46856201 5.69978027 65.46856201 5.69978027 66.69580078 5.69238281 C68.76859242 5.69230294 68.76859242 5.69230294 70.6953125 4.56640625 C71.0253125 3.57640625 71.3553125 2.58640625 71.6953125 1.56640625 C74.25254479 0.2877901 76.06268352 0.45304016 78.921875 0.46875 C79.953125 0.47197266 80.984375 0.47519531 82.046875 0.47851562 C83.12710938 0.48689453 84.20734375 0.49527344 85.3203125 0.50390625 C86.95226562 0.51067383 86.95226562 0.51067383 88.6171875 0.51757812 C91.30995039 0.52938849 94.00260438 0.54585847 96.6953125 0.56640625 C96.97165527 1.20481445 97.24799805 1.84322266 97.53271484 2.50097656 C98.55810308 4.82623109 98.55810308 4.82623109 101.296875 5.61328125 C102.29460937 5.8453125 103.29234375 6.07734375 104.3203125 6.31640625 C105.32320312 6.55875 106.32609375 6.80109375 107.359375 7.05078125 C108.13023437 7.2209375 108.90109375 7.39109375 109.6953125 7.56640625 C110.0253125 8.88640625 110.3553125 10.20640625 110.6953125 11.56640625 C111.46617187 11.664375 112.23703125 11.76234375 113.03125 11.86328125 C114.03414062 12.0128125 115.03703125 12.16234375 116.0703125 12.31640625 C117.06804687 12.455625 118.06578125 12.59484375 119.09375 12.73828125 C121.6953125 13.56640625 121.6953125 13.56640625 123.046875 15.64453125 C123.36785156 16.59585937 123.36785156 16.59585937 123.6953125 17.56640625 C121.08993452 19.96335399 119.79538294 20.55568442 116.1953125 20.94140625 C112.55052457 21.17989317 112.55052457 21.17989317 110.8828125 24.00390625 C107.9187969 27.47603881 105.3453357 27.43665596 100.9375 27.9140625 C99.82761719 28.23697266 99.82761719 28.23697266 98.6953125 28.56640625 C98.0353125 29.88640625 97.3753125 31.20640625 96.6953125 32.56640625 C93.3953125 33.22640625 90.0953125 33.88640625 86.6953125 34.56640625 C86.3653125 47.43640625 86.0353125 60.30640625 85.6953125 73.56640625 C89.35367188 73.53160156 93.01203125 73.49679687 96.78125 73.4609375 C100.31249206 73.4375618 103.84372559 73.41933386 107.375 73.40161133 C109.83499998 73.38649637 112.29497291 73.36600398 114.75488281 73.34008789 C118.28457302 73.30382395 121.81390794 73.28670711 125.34375 73.2734375 C126.44899017 73.25795364 127.55423035 73.24246979 128.69296265 73.22651672 C129.71386993 73.22629013 130.73477722 73.22606354 131.78662109 73.22583008 C132.68818939 73.21916824 133.58975769 73.21250641 134.51864624 73.2056427 C135.23694611 73.32469467 135.95524597 73.44374664 136.6953125 73.56640625 C137.6853125 75.05140625 137.6853125 75.05140625 138.6953125 76.56640625 C141.67290321 76.87702536 144.44618315 76.99334084 147.42773438 76.98291016 C148.78397667 76.99578819 148.78397667 76.99578819 150.1676178 77.00892639 C153.16651077 77.03408982 156.16507341 77.03837447 159.1640625 77.04296875 C161.24150615 77.05726952 163.31894026 77.07302485 165.3963623 77.09017944 C170.87333275 77.13212619 176.35024409 77.1570607 181.82733154 77.17767334 C190.59515644 77.21342406 199.36283542 77.27436267 208.13050842 77.33616257 C211.20057132 77.35530668 214.27059528 77.36699949 217.34069824 77.37759399 C219.21476323 77.38780291 221.08882742 77.39816056 222.96289062 77.40869141 C223.82217667 77.40973373 224.68146271 77.41077606 225.56678772 77.41184998 C231.46847219 77.45298609 231.46847219 77.45298609 233.6953125 78.56640625 C233.6953125 79.88640625 233.6953125 81.20640625 233.6953125 82.56640625 C233.06882812 82.67597656 232.44234375 82.78554688 231.796875 82.8984375 C230.97960937 83.05699219 230.16234375 83.21554687 229.3203125 83.37890625 C228.50820313 83.52972656 227.69609375 83.68054688 226.859375 83.8359375 C224.33710609 84.44185567 224.33710609 84.44185567 222.6953125 87.56640625 C220.40422524 88.25031289 218.14969934 88.57351479 215.7890625 88.94140625 C213.32150186 89.43528123 213.32150186 89.43528123 211.6953125 92.56640625 C209.53125 93.296875 209.53125 93.296875 207.0703125 93.75390625 C206.25304687 93.91246094 205.43578125 94.07101562 204.59375 94.234375 C203.65402344 94.39873047 203.65402344 94.39873047 202.6953125 94.56640625 C202.67219048 106.41405798 202.65439813 118.26170439 202.64350033 130.10937405 C202.63827119 135.61011487 202.63117299 141.1108403 202.61987305 146.61157227 C202.60904525 151.91537185 202.6030359 157.2191566 202.60043526 162.52296638 C202.59858081 164.55126237 202.59495983 166.57955751 202.58958244 168.60784721 C202.58237344 171.43837139 202.5813215 174.26883343 202.58178711 177.09936523 C202.57819183 177.94668716 202.57459656 178.79400909 202.57089233 179.66700745 C202.21294205 183.42146469 202.21294205 183.42146469 203.6953125 186.56640625 C205.20696904 186.95789386 206.73000882 187.30613082 208.2578125 187.62890625 C209.08410156 187.80550781 209.91039062 187.98210937 210.76171875 188.1640625 C211.39980469 188.29683594 212.03789062 188.42960938 212.6953125 188.56640625 C213.0253125 190.87640625 213.3553125 193.18640625 213.6953125 195.56640625 C214.9740625 195.62828125 216.2528125 195.69015625 217.5703125 195.75390625 C218.28960937 195.78871094 219.00890625 195.82351563 219.75 195.859375 C220.39195312 195.76269531 221.03390625 195.66601562 221.6953125 195.56640625 C222.3553125 194.57640625 223.0153125 193.58640625 223.6953125 192.56640625 C225.82421875 192.23828125 225.82421875 192.23828125 228.2578125 192.31640625 C229.06347656 192.331875 229.86914062 192.34734375 230.69921875 192.36328125 C232.6953125 192.56640625 232.6953125 192.56640625 233.6953125 193.56640625 C233.828125 195.37890625 233.828125 195.37890625 233.8203125 197.56640625 C233.82289063 198.28828125 233.82546875 199.01015625 233.828125 199.75390625 C233.6953125 201.56640625 233.6953125 201.56640625 232.6953125 202.56640625 C230.40613369 202.76799734 228.11969187 202.88533562 225.82421875 202.9921875 C225.12167969 203.18167969 224.41914063 203.37117187 223.6953125 203.56640625 C223.36660156 204.22511719 223.03789062 204.88382813 222.69921875 205.5625 C222.36792969 206.22378906 222.03664063 206.88507813 221.6953125 207.56640625 C219.53125 208.17578125 219.53125 208.17578125 217.0703125 208.31640625 C216.25304687 208.373125 215.43578125 208.42984375 214.59375 208.48828125 C213.96726562 208.5140625 213.34078125 208.53984375 212.6953125 208.56640625 C212.72625 210.26796875 212.72625 210.26796875 212.7578125 212.00390625 C212.6953125 215.56640625 212.6953125 215.56640625 211.6953125 216.56640625 C209.48046875 216.76953125 209.48046875 216.76953125 206.7578125 216.81640625 C205.41396484 216.85507812 205.41396484 216.85507812 204.04296875 216.89453125 C202.88087891 216.73210937 202.88087891 216.73210937 201.6953125 216.56640625 C201.0353125 215.57640625 200.3753125 214.58640625 199.6953125 213.56640625 C196.82383903 213.20710393 194.13682624 213.00797304 191.2578125 212.94140625 C182.99773185 212.6672127 182.99773185 212.6672127 179.6953125 211.56640625 C179.6953125 210.57640625 179.6953125 209.58640625 179.6953125 208.56640625 C179.06882812 208.50582031 178.44234375 208.44523438 177.796875 208.3828125 C176.97960937 208.29902344 176.16234375 208.21523438 175.3203125 208.12890625 C174.10214844 208.00708984 174.10214844 208.00708984 172.859375 207.8828125 C170.6953125 207.56640625 170.6953125 207.56640625 168.6953125 206.56640625 C168.6953125 205.57640625 168.6953125 204.58640625 168.6953125 203.56640625 C162.94386851 203.1153126 161.042601 203.97989324 156.6953125 207.56640625 C155.5196875 207.73140625 154.3440625 207.89640625 153.1328125 208.06640625 C149.6381933 208.22488382 149.6381933 208.22488382 147.6953125 210.56640625 C144.9409967 213.32072205 142.46995585 213.07710063 138.6953125 213.56640625 C138.0353125 214.55640625 137.3753125 215.54640625 136.6953125 216.56640625 C134.3828125 216.96484375 134.3828125 216.96484375 131.6953125 216.94140625 C130.8084375 216.94914063 129.9215625 216.956875 129.0078125 216.96484375 C128.2446875 216.83335937 127.4815625 216.701875 126.6953125 216.56640625 C126.0353125 215.57640625 125.3753125 214.58640625 124.6953125 213.56640625 C121.82383903 213.20710393 119.13682624 213.00797304 116.2578125 212.94140625 C107.99773185 212.6672127 107.99773185 212.6672127 104.6953125 211.56640625 C104.0353125 210.57640625 103.3753125 209.58640625 102.6953125 208.56640625 C99.8685536 208.12099783 99.8685536 208.12099783 96.55078125 208.1953125 C94.69936523 208.16920898 94.69936523 208.16920898 92.81054688 208.14257812 C90.20378663 208.13350437 87.59701008 208.12826109 84.99023438 208.12695312 C83.75208984 208.10826172 82.51394531 208.08957031 81.23828125 208.0703125 C80.10414795 208.06845947 78.97001465 208.06660645 77.80151367 208.06469727 C74.05359079 207.46346245 72.54116391 205.99413278 69.6953125 203.56640625 C67.6294411 202.96081178 67.6294411 202.96081178 65.55859375 202.9921875 C64.44581055 202.95061523 64.44581055 202.95061523 63.31054688 202.90820312 C62.55064453 202.89853516 61.79074219 202.88886719 61.0078125 202.87890625 C52.87170507 202.65460254 52.87170507 202.65460254 50.6953125 201.56640625 C51.0253125 200.24640625 51.3553125 198.92640625 51.6953125 197.56640625 C52.32179688 197.45683594 52.94828125 197.34726562 53.59375 197.234375 C54.41101563 197.07582031 55.22828125 196.91726563 56.0703125 196.75390625 C57.28847656 196.52767578 57.28847656 196.52767578 58.53125 196.296875 C61.05351891 195.69095683 61.05351891 195.69095683 62.6953125 192.56640625 C67.1503125 191.57640625 67.1503125 191.57640625 71.6953125 190.56640625 C72.0253125 171.09640625 72.3553125 151.62640625 72.6953125 131.56640625 C79.6953125 129.56640625 79.6953125 129.56640625 82.6953125 129.56640625 C83.6853125 127.58640625 83.6853125 127.58640625 84.6953125 125.56640625 C105.1553125 125.56640625 125.6153125 125.56640625 146.6953125 125.56640625 C147.3553125 126.88640625 148.0153125 128.20640625 148.6953125 129.56640625 C144.79016817 132.16983581 141.40908981 131.91811359 136.87109375 131.98046875 C136.10744507 131.99811279 135.34379639 132.01575684 134.55700684 132.03393555 C131.70748862 132.09694735 128.85761916 132.14317225 126.0078125 132.19140625 C119.6346875 132.31515625 113.2615625 132.43890625 106.6953125 132.56640625 C106.3653125 150.38640625 106.0353125 168.20640625 105.6953125 186.56640625 C108.6653125 186.89640625 111.6353125 187.22640625 114.6953125 187.56640625 C115.3553125 188.55640625 116.0153125 189.54640625 116.6953125 190.56640625 C120.00294583 191.66895069 122.56003453 191.7238997 126.04296875 191.77734375 C127.28755859 191.80570313 128.53214844 191.8340625 129.81445312 191.86328125 C132.44712119 191.91543911 135.07995763 191.95968776 137.71289062 191.99609375 C138.95619141 192.02703125 140.19949219 192.05796875 141.48046875 192.08984375 C142.62394775 192.10966309 143.76742676 192.12948242 144.94555664 192.14990234 C145.85297607 192.28734863 146.76039551 192.42479492 147.6953125 192.56640625 C148.3553125 193.55640625 149.0153125 194.54640625 149.6953125 195.56640625 C155.6353125 195.56640625 161.5753125 195.56640625 167.6953125 195.56640625 C168.0253125 171.47640625 168.3553125 147.38640625 168.6953125 122.56640625 C165.7253125 122.23640625 162.7553125 121.90640625 159.6953125 121.56640625 C159.0353125 120.24640625 158.3753125 118.92640625 157.6953125 117.56640625 C161.23897951 115.52198297 163.29733879 115.29940187 167.6953125 114.56640625 C168.0253125 109.28640625 168.3553125 104.00640625 168.6953125 98.56640625 C151.5353125 98.23640625 134.3753125 97.90640625 116.6953125 97.56640625 C116.0353125 96.24640625 115.3753125 94.92640625 114.6953125 93.56640625 C105.1253125 93.23640625 95.5553125 92.90640625 85.6953125 92.56640625 C85.77433076 97.41306736 85.77433076 97.41306736 85.87548828 102.25927734 C85.8901242 104.029279 85.79459764 105.7991308 85.6953125 107.56640625 C83.6953125 109.56640625 83.6953125 109.56640625 81.3828125 109.83203125 C80.4959375 109.826875 79.6090625 109.82171875 78.6953125 109.81640625 C77.365 109.82414063 77.365 109.82414063 76.0078125 109.83203125 C73.6953125 109.56640625 73.6953125 109.56640625 71.6953125 107.56640625 C71.55033265 104.98576496 71.50853705 102.51696741 71.5703125 99.94140625 C71.57933594 99.235 71.58835937 98.52859375 71.59765625 97.80078125 C71.62123647 96.05584527 71.65710789 94.3110833 71.6953125 92.56640625 C67.7353125 93.55640625 67.7353125 93.55640625 63.6953125 94.56640625 C63.67025635 95.19732178 63.6452002 95.8282373 63.61938477 96.47827148 C63.50377113 99.3203745 63.38088934 102.16211708 63.2578125 105.00390625 C63.21849609 105.99712891 63.17917969 106.99035156 63.13867188 108.01367188 C63.09677734 108.95791016 63.05488281 109.90214844 63.01171875 110.875 C62.97506104 111.74954834 62.93840332 112.62409668 62.90063477 113.52514648 C62.6953125 115.56640625 62.6953125 115.56640625 61.6953125 116.56640625 C60.03102199 116.66464562 58.36249319 116.69614256 56.6953125 116.69140625 C55.3340625 116.69527344 55.3340625 116.69527344 53.9453125 116.69921875 C51.6953125 116.56640625 51.6953125 116.56640625 50.6953125 115.56640625 C50.59548192 113.57883597 50.56450497 111.58773105 50.5625 109.59765625 C50.56121094 108.38722656 50.55992187 107.17679687 50.55859375 105.9296875 C50.56246094 104.65480469 50.56632812 103.37992187 50.5703125 102.06640625 C50.56644531 100.79152344 50.56257813 99.51664062 50.55859375 98.203125 C50.55988281 96.99269531 50.56117188 95.78226562 50.5625 94.53515625 C50.56362793 93.41560547 50.56475586 92.29605469 50.56591797 91.14257812 C50.6953125 88.56640625 50.6953125 88.56640625 51.6953125 87.56640625 C53.94413845 87.07363562 56.2027434 86.66768084 58.46875 86.26171875 C60.75796269 85.75529772 60.75796269 85.75529772 62.046875 84.05859375 C63.6953125 82.56640625 63.6953125 82.56640625 70.6953125 81.56640625 C70.6953125 68.36640625 70.6953125 55.16640625 70.6953125 41.56640625 C67.0653125 40.57640625 63.4353125 39.58640625 59.6953125 38.56640625 C58.7053125 36.58640625 58.7053125 36.58640625 57.6953125 34.56640625 C55.34997299 33.79684489 55.34997299 33.79684489 52.6953125 33.56640625 C50.0078125 33.25390625 50.0078125 33.25390625 47.6953125 32.56640625 C46.9991206 31.2482488 46.33107364 29.91474967 45.6953125 28.56640625 C43.81375738 27.8324222 43.81375738 27.8324222 41.6953125 27.75390625 C40.9940625 27.68558594 40.2928125 27.61726563 39.5703125 27.546875 C37.60217838 27.43052627 37.60217838 27.43052627 35.6953125 28.56640625 C35.42847656 29.22253906 35.16164063 29.87867188 34.88671875 30.5546875 C33.6953125 32.56640625 33.6953125 32.56640625 31.34765625 33.359375 C30.45175781 33.48957031 29.55585938 33.61976563 28.6328125 33.75390625 C25.3625232 34.01914628 25.3625232 34.01914628 22.6953125 35.56640625 C22.59937025 37.14795473 22.5734329 38.7337975 22.57505798 40.31825256 C22.57368332 41.34615402 22.57230865 42.37405548 22.57089233 43.43310547 C22.57448761 44.57030029 22.57808289 45.70749512 22.58178711 46.87915039 C22.58164108 48.06923203 22.58149506 49.25931366 22.5813446 50.48545837 C22.58192356 53.75803899 22.58695269 57.03057732 22.59391856 60.30314946 C22.60015283 63.7197929 22.60075596 67.13643708 22.60194397 70.55308533 C22.60505707 77.02709892 22.61327017 83.50109571 22.62329346 89.97510189 C22.63445525 97.34378545 22.63996521 104.7124698 22.64498889 112.08115971 C22.65545281 127.24291794 22.67305184 142.40466042 22.6953125 157.56640625 C25.78812087 158.60887732 28.86674014 159.61492351 32.0078125 160.50390625 C32.8946875 160.85453125 33.7815625 161.20515625 34.6953125 161.56640625 C35.0253125 162.55640625 35.3553125 163.54640625 35.6953125 164.56640625 C38.25573316 165.59679581 38.25573316 165.59679581 41.2578125 166.25390625 C42.26972656 166.50527344 43.28164063 166.75664063 44.32421875 167.015625 C45.10667969 167.19738281 45.88914062 167.37914062 46.6953125 167.56640625 C47.3203125 169.44140625 47.3203125 169.44140625 47.6953125 171.56640625 C44.83687068 174.42484807 41.91839289 174.27429934 38.0078125 174.80859375 C37.2446875 175.05867187 36.4815625 175.30875 35.6953125 175.56640625 C35.3653125 176.22898437 35.0353125 176.8915625 34.6953125 177.57421875 C34.3653125 178.23164062 34.0353125 178.8890625 33.6953125 179.56640625 C31.12979346 180.32912813 28.66306711 180.57015571 26.0078125 180.87890625 C25.2446875 181.10578125 24.4815625 181.33265625 23.6953125 181.56640625 C23.37433594 182.21609375 23.05335938 182.86578125 22.72265625 183.53515625 C21.6953125 185.56640625 21.6953125 185.56640625 19.19921875 186.47265625 C18.22855469 186.66859375 17.25789063 186.86453125 16.2578125 187.06640625 C12.07218872 187.79771103 12.07218872 187.79771103 9.15234375 190.625 C7.6953125 192.56640625 7.6953125 192.56640625 5.390625 193.1328125 C-1.70520026 193.12202857 -1.70520026 193.12202857 -4.8671875 190.19140625 C-5.6715625 189.32515625 -6.4759375 188.45890625 -7.3046875 187.56640625 C-9.64480506 186.89721474 -11.90201964 186.51496886 -14.31640625 186.21875 C-15.30060547 185.89583984 -15.30060547 185.89583984 -16.3046875 185.56640625 C-16.61921875 184.9115625 -16.93375 184.25671875 -17.2578125 183.58203125 C-18.13640432 181.32103647 -18.13640432 181.32103647 -20.65234375 180.7734375 C-21.99619141 180.57814453 -21.99619141 180.57814453 -23.3671875 180.37890625 C-28.24028072 179.63081303 -28.24028072 179.63081303 -29.3046875 178.56640625 C-29.4292361 176.92410261 -29.48037274 175.27588349 -29.4921875 173.62890625 C-29.50636719 172.73300781 -29.52054688 171.83710937 -29.53515625 170.9140625 C-29.3046875 168.56640625 -29.3046875 168.56640625 -27.3046875 166.56640625 C-24.0046875 166.23640625 -20.7046875 165.90640625 -17.3046875 165.56640625 C-17.3046875 122.66640625 -17.3046875 79.76640625 -17.3046875 35.56640625 C-19.6146875 34.90640625 -21.9246875 34.24640625 -24.3046875 33.56640625 C-27.1796875 32.62890625 -27.1796875 32.62890625 -29.3046875 31.56640625 C-29.6346875 30.57640625 -29.9646875 29.58640625 -30.3046875 28.56640625 C-31.00335938 28.44523437 -31.70203125 28.3240625 -32.421875 28.19921875 C-33.33195313 28.03164063 -34.24203125 27.8640625 -35.1796875 27.69140625 C-36.08460938 27.52898437 -36.98953125 27.3665625 -37.921875 27.19921875 C-40.3046875 26.56640625 -40.3046875 26.56640625 -42.3046875 24.56640625 C-41.76897321 21.03069196 -41.76897321 21.03069196 -40.3046875 19.56640625 C-37.76022376 19.11315962 -35.20994694 18.73105546 -32.65234375 18.359375 C-30.13408511 17.81602982 -30.13408511 17.81602982 -29.30078125 15.5546875 C-28.97207031 14.89855469 -28.64335937 14.24242187 -28.3046875 13.56640625 C-25.73916846 12.80368437 -23.27244211 12.56265679 -20.6171875 12.25390625 C-19.8540625 12.02703125 -19.0909375 11.80015625 -18.3046875 11.56640625 C-17.98371094 10.91671875 -17.66273438 10.26703125 -17.33203125 9.59765625 C-16.3046875 7.56640625 -16.3046875 7.56640625 -13.80859375 6.66015625 C-12.83792969 6.46421875 -11.86726563 6.26828125 -10.8671875 6.06640625 C-6.68156372 5.33510147 -6.68156372 5.33510147 -3.76171875 2.5078125 C-2.3046875 0.56640625 -2.3046875 0.56640625 0 0 Z " fill="currentColor" transform="translate(221.3046875,404.43359375)"/>
<path d="M0 0 C0.33 13.53 0.66 27.06 1 41 C7.03152344 41.04898438 13.06304687 41.09796875 19.27734375 41.1484375 C23.1100423 41.1838442 26.94271901 41.21981585 30.77539062 41.2578125 C36.85193675 41.31800115 42.92845249 41.37615531 49.00512695 41.421875 C53.90706738 41.45888753 58.80883904 41.50528996 63.71063423 41.55806351 C65.57598456 41.57652291 67.44137096 41.59166168 69.30677605 41.60334396 C71.9298703 41.62035199 74.5525851 41.64942039 77.17553711 41.68115234 C77.9379924 41.68331253 78.70044769 41.68547272 79.48600769 41.68769836 C84.85914701 41.77014064 89.80003058 42.66344431 95 44 C95 45.65 95 47.3 95 49 C90.86168103 51.06915948 87.23353384 51.2364403 82.6953125 51.265625 C79.68729553 52.08520064 79.1595664 52.79864509 77.09375 55 C71.83852862 59.79198651 65.09983589 58.80992428 58.375 58.75 C55.77861014 58.75766651 53.18222875 58.77298275 50.5859375 58.796875 C48.86963135 58.78672363 48.86963135 58.78672363 47.11865234 58.77636719 C43.94631517 59.00384964 41.78704549 59.47772271 39 61 C38.67 61.99 38.34 62.98 38 64 C26.1022878 67.39934634 13.36693885 66.58776871 1 67 C1 116.5 1 166 1 217 C6.25502504 218.50143572 9.69690224 219.24344534 14.88671875 219.36328125 C17 220 17 220 18.75390625 222.4296875 C21.87432385 226.0005306 24.69912037 226.18132677 29.25 226.8125 C29.99507812 226.93302734 30.74015625 227.05355469 31.5078125 227.17773438 C33.33562338 227.47065279 35.16751435 227.73791194 37 228 C37.33 229.65 37.66 231.3 38 233 C34.60381785 235.26412144 32.44865048 235.52917385 28.4375 236.0625 C24.07188045 236.54951095 24.07188045 236.54951095 20 238 C19.67 238.99 19.34 239.98 19 241 C14.77057527 242.90324113 10.81247791 243.25746486 6.24609375 243.36328125 C3.72991777 243.86610596 3.72991777 243.86610596 1.734375 246.4453125 C-1.80681115 249.75379213 -4.51046619 250.01649334 -9.1875 250.5625 C-11.89689771 250.88820676 -14.33200877 251.33966477 -17 252 C-18.4309909 253.92653613 -18.4309909 253.92653613 -19 256 C-22.01858766 257.50929383 -25.12900954 257.22510073 -28.4375 257.25 C-29.4594043 257.2809375 -29.4594043 257.2809375 -30.50195312 257.3125 C-35.51677812 257.35179344 -35.51677812 257.35179344 -37.91015625 255.609375 C-39 254 -39 254 -40 252 C-42.9898191 251.00339363 -45.12742452 250.90408392 -48.25 250.8125 C-52.38697047 250.48845532 -54.48141033 250.05787423 -57.375 247.0625 C-61.30278096 243.04849946 -65.70660407 242.94958751 -71.109375 242.421875 C-74 242 -74 242 -77 240 C-77.46875 237.72265625 -77.46875 237.72265625 -77.5 235.0625 C-77.5309375 234.18722656 -77.561875 233.31195312 -77.59375 232.41015625 C-77 230 -77 230 -74.88867188 228.42358398 C-71.60135536 226.80354151 -68.81373154 226.28867182 -65.1875 225.8125 C-64.02605469 225.65394531 -62.86460938 225.49539063 -61.66796875 225.33203125 C-60.78753906 225.22246094 -59.90710938 225.11289062 -59 225 C-58.97667275 204.54701526 -58.95902168 184.09403321 -58.94818783 163.64103794 C-58.9430245 154.14504617 -58.93598111 144.64906265 -58.92456055 135.15307617 C-58.91461483 126.87947155 -58.90814684 118.60587289 -58.90591151 110.33226246 C-58.90460421 105.9486641 -58.90151715 101.56508284 -58.89426994 97.18148994 C-58.88751149 93.060365 -58.88538268 88.93926427 -58.88689232 84.81813431 C-58.88661591 83.30113659 -58.88460975 81.7841381 -58.88079453 80.26714516 C-58.87585999 78.20492699 -58.8770008 76.14280174 -58.87974548 74.08058167 C-58.87882369 72.92373147 -58.8779019 71.76688128 -58.87695217 70.57497501 C-58.70744044 68.06837639 -58.70744044 68.06837639 -60 67 C-62.0179964 66.8867189 -64.03993095 66.84314534 -66.06103516 66.82641602 C-68.00908554 66.80618126 -68.00908554 66.80618126 -69.99649048 66.78553772 C-70.69550098 66.78047777 -71.39451149 66.77541782 -72.11470413 66.77020454 C-74.30111432 66.75381591 -76.48735105 66.73057474 -78.67367554 66.70530701 C-84.89190013 66.63450382 -91.11019918 66.57463869 -97.32861328 66.52319336 C-101.12945413 66.49126607 -104.93010185 66.4499456 -108.73078537 66.40299797 C-110.17632924 66.38704689 -111.62191768 66.37469373 -113.06752396 66.36609077 C-115.09928714 66.35383436 -117.13095955 66.32863894 -119.16259766 66.30297852 C-120.31652008 66.29267105 -121.4704425 66.28236359 -122.65933228 66.27174377 C-126.3843315 65.96873688 -129.4487747 65.13386319 -133 64 C-133.625 62.125 -133.625 62.125 -134 60 C-130.70743211 56.70743211 -126.17844138 57.32068909 -121.67578125 56.953125 C-117.9060412 55.97563661 -117.43296127 55.60956012 -114.9609375 52.97265625 C-109.80575751 48.15093184 -102.97061486 49.15136815 -96.3125 49.1875 C-93.70439631 49.16326823 -91.09631812 49.13605766 -88.48828125 49.10546875 C-87.33884033 49.10699951 -86.18939941 49.10853027 -85.00512695 49.11010742 C-82.4517702 49.0165528 -80.38648871 48.88974601 -78 48 C-77.33228614 46.66719078 -76.66563046 45.33385093 -76 44 C-74.15234375 43.20703125 -74.15234375 43.20703125 -71.9375 42.8125 C-71.22464844 42.67457031 -70.51179688 42.53664063 -69.77734375 42.39453125 C-65.86140133 41.83825813 -61.93295177 41.41666931 -58 41 C-58.02618408 40.25838623 -58.05236816 39.51677246 -58.0793457 38.75268555 C-58.18317431 35.39783855 -58.24828239 32.04332895 -58.3125 28.6875 C-58.35439453 27.52025391 -58.39628906 26.35300781 -58.43945312 25.15039062 C-58.45556641 24.03212891 -58.47167969 22.91386719 -58.48828125 21.76171875 C-58.51446533 20.73006592 -58.54064941 19.69841309 -58.56762695 18.63549805 C-58 16 -58 16 -55.67333984 14.17675781 C-51.5222123 12.3495035 -47.34000599 12.16373785 -42.86328125 11.72265625 C-39.88005245 11.31901296 -39.88005245 11.31901296 -38.73046875 8.99609375 C-38.48941406 8.33738281 -38.24835938 7.67867188 -38 7 C-34.8346014 5.4173007 -31.35358491 5.34303451 -27.875 4.9375 C-27.12089844 4.84662109 -26.36679688 4.75574219 -25.58984375 4.66210938 C-23.72695812 4.43809148 -21.86352748 4.21861427 -20 4 C-19.814375 3.04867188 -19.814375 3.04867188 -19.625 2.078125 C-19 0 -19 0 -17 -1.25 C-10.70363296 -2.82409176 -6.03331279 -2.41332512 0 0 Z " fill="currentColor" transform="translate(163,328)"/>
<path d="M0 0 C1.1456543 -0.01836914 1.1456543 -0.01836914 2.31445312 -0.03710938 C9.23835851 -0.05518746 9.23835851 -0.05518746 12.5625 2.1875 C12.5625 3.1775 12.5625 4.1675 12.5625 5.1875 C7.1175 6.6725 7.1175 6.6725 1.5625 8.1875 C1.5625 11.4875 1.5625 14.7875 1.5625 18.1875 C5.37109375 18.82226562 5.37109375 18.82226562 9.1796875 19.45703125 C11.5625 20.1875 11.5625 20.1875 13.5625 23.1875 C15.91617713 23.8753236 15.91617713 23.8753236 18.5625 24.1875 C21.25 24.5625 21.25 24.5625 23.5625 25.1875 C24.5525 26.6725 24.5525 26.6725 25.5625 28.1875 C27.5232615 28.62896688 27.5232615 28.62896688 29.7734375 28.55859375 C31.02253906 28.58469727 31.02253906 28.58469727 32.296875 28.61132812 C34.04946342 28.62040218 35.80207608 28.62564521 37.5546875 28.62695312 C44.15449116 28.77463392 44.15449116 28.77463392 46.53125 31.1796875 C49.90600954 34.51550751 54.1298983 33.82665203 58.6875 33.875 C60.5026902 33.91700651 62.31780591 33.9624124 64.1328125 34.01171875 C65.33574951 34.02851685 65.33574951 34.02851685 66.56298828 34.0456543 C68.5625 34.1875 68.5625 34.1875 70.5625 35.1875 C70.5625 36.1775 70.5625 37.1675 70.5625 38.1875 C71.17246826 38.1968457 71.78243652 38.20619141 72.41088867 38.21582031 C75.19139487 38.26971326 77.97025262 38.35332069 80.75 38.4375 C81.70970703 38.45167969 82.66941406 38.46585937 83.65820312 38.48046875 C89.58031063 38.68538596 91.93957009 39.39432674 96.5625 43.1875 C99.82359115 43.825435 103.05896055 43.88309816 106.375 43.9375 C107.25865234 43.96714844 108.14230469 43.99679687 109.05273438 44.02734375 C111.22217218 44.0977039 113.39233948 44.14490607 115.5625 44.1875 C116.5525 46.1675 116.5525 46.1675 117.5625 48.1875 C118.21847168 48.20208252 118.87444336 48.21666504 119.55029297 48.23168945 C122.51330031 48.30601414 125.47516117 48.40272369 128.4375 48.5 C129.47003906 48.52255859 130.50257813 48.54511719 131.56640625 48.56835938 C132.55253906 48.60380859 133.53867187 48.63925781 134.5546875 48.67578125 C135.46589355 48.70196533 136.37709961 48.72814941 137.31591797 48.75512695 C138.05729004 48.89781006 138.79866211 49.04049316 139.5625 49.1875 C140.2225 50.1775 140.8825 51.1675 141.5625 52.1875 C144.60012226 52.66661941 144.60012226 52.66661941 148.1796875 52.62890625 C148.83325226 52.64211411 149.48681702 52.65532196 150.16018677 52.66893005 C152.25266722 52.70987742 154.34470931 52.73149887 156.4375 52.75 C158.52301363 52.77382482 160.60811631 52.80204038 162.69338989 52.84178162 C164.59083442 52.87724555 166.48855092 52.89713548 168.38623047 52.91625977 C171.39035262 53.17279933 173.09009417 53.51272794 175.5625 55.1875 C175.8925 55.8475 176.2225 56.5075 176.5625 57.1875 C178.91157875 57.87681344 178.91157875 57.87681344 181.625 58.3125 C182.54410156 58.48007812 183.46320313 58.64765625 184.41015625 58.8203125 C185.47556641 59.00207031 185.47556641 59.00207031 186.5625 59.1875 C186.5625 60.5075 186.5625 61.8275 186.5625 63.1875 C185.1047647 63.523439 183.64628894 63.85616624 182.1875 64.1875 C181.37539063 64.373125 180.56328125 64.55875 179.7265625 64.75 C177.5625 65.1875 177.5625 65.1875 175.5625 65.1875 C175.2325 66.1775 174.9025 67.1675 174.5625 68.1875 C172.56640625 68.91796875 172.56640625 68.91796875 170.125 69.375 C169.32191406 69.53355469 168.51882813 69.69210937 167.69140625 69.85546875 C165.5625 70.1875 165.5625 70.1875 163.5625 70.1875 C163.56472061 71.36291855 163.56694122 72.5383371 163.56922913 73.74937439 C163.58945902 84.80088677 163.6044714 95.85239542 163.61431217 106.90392208 C163.61954139 112.58626512 163.62663973 118.26859327 163.63793945 123.95092773 C163.64876696 129.42979136 163.65477654 134.90864062 163.65737724 140.38751411 C163.65923174 142.48279611 163.66285282 144.57807728 163.66823006 146.6733532 C163.67543868 149.59727584 163.67649102 152.52113833 163.67602539 155.44506836 C163.67962067 156.3204425 163.68321594 157.19581665 163.68692017 158.09771729 C163.67655216 164.07344784 163.67655216 164.07344784 162.5625 165.1875 C160.0197048 165.68081124 157.4684331 166.08728037 154.91015625 166.4921875 C152.21267477 167.01861044 152.21267477 167.01861044 150.5625 170.1875 C147.98160438 170.60166399 145.486435 170.62665839 142.875 170.68359375 C141.7303125 170.93302734 141.7303125 170.93302734 140.5625 171.1875 C140.23507812 171.84363281 139.90765625 172.49976563 139.5703125 173.17578125 C139.23773437 173.83964844 138.90515625 174.50351562 138.5625 175.1875 C136.1796875 175.796875 136.1796875 175.796875 133.4375 175.9375 C132.52742187 175.99421875 131.61734375 176.0509375 130.6796875 176.109375 C129.63167969 176.14804687 129.63167969 176.14804687 128.5625 176.1875 C128.5625 177.1775 128.5625 178.1675 128.5625 179.1875 C127.86382813 179.29707031 127.16515625 179.40664063 126.4453125 179.51953125 C125.53523437 179.67808594 124.62515625 179.83664062 123.6875 180 C122.33011719 180.22623047 122.33011719 180.22623047 120.9453125 180.45703125 C118.21837522 181.01801301 118.21837522 181.01801301 116.5625 184.1875 C114.01046694 184.87723866 111.49157629 185.19739633 108.875 185.5625 C106.20385017 186.01209475 106.20385017 186.01209475 104.5625 189.1875 C102.36352539 189.57568359 102.36352539 189.57568359 99.66015625 189.5859375 C98.20125977 189.59173828 98.20125977 189.59173828 96.71289062 189.59765625 C95.69388672 189.58605469 94.67488281 189.57445312 93.625 189.5625 C92.60986328 189.57410156 91.59472656 189.58570313 90.54882812 189.59765625 C89.57494141 189.59378906 88.60105469 189.58992187 87.59765625 189.5859375 C86.7044165 189.58255371 85.81117676 189.57916992 84.89086914 189.57568359 C82.5625 189.1875 82.5625 189.1875 81.16967773 187.69238281 C78.63671899 185.32064383 76.2079959 185.76600686 72.8125 185.7109375 C72.15797852 185.69535797 71.50345703 185.67977844 70.82910156 185.66372681 C68.74024655 185.61625566 66.6517235 185.58847101 64.5625 185.5625 C62.47351289 185.52595234 60.38471142 185.4852656 58.29589844 185.43984985 C56.40054126 185.40027576 54.50494951 185.37245873 52.609375 185.34521484 C49.5625 185.1875 49.5625 185.1875 46.5625 184.1875 C45.9025 183.1975 45.2425 182.2075 44.5625 181.1875 C42.58733122 180.71367453 42.58733122 180.71367453 40.31640625 180.74609375 C39.47916016 180.71966797 38.64191406 180.69324219 37.77929688 180.66601562 C36.90337891 180.65248047 36.02746094 180.63894531 35.125 180.625 C33.39694527 180.59051554 31.66902897 180.54788259 29.94140625 180.49609375 C28.79007202 180.47760376 28.79007202 180.47760376 27.61547852 180.45874023 C25.5625 180.1875 25.5625 180.1875 22.5625 178.1875 C22.5625 177.5275 22.5625 176.8675 22.5625 176.1875 C21.93601562 176.12691406 21.30953125 176.06632813 20.6640625 176.00390625 C19.84679687 175.92011719 19.02953125 175.83632813 18.1875 175.75 C16.96933594 175.62818359 16.96933594 175.62818359 15.7265625 175.50390625 C13.5625 175.1875 13.5625 175.1875 11.5625 174.1875 C11.26953125 168.1328125 11.26953125 168.1328125 11.5625 166.1875 C15.00700737 163.89116176 17.50062283 163.64733515 21.5625 163.1875 C21.57058685 162.02683014 21.57867371 160.86616028 21.58700562 159.6703186 C21.66436829 148.75146265 21.75208223 137.83273283 21.85002708 126.91404152 C21.90005061 121.30014153 21.94637997 115.68626093 21.984375 110.07226562 C22.02115146 104.65813883 22.06749026 99.24417184 22.12056351 93.83018112 C22.1391482 91.76087614 22.15424095 89.69153685 22.16584396 87.62218094 C22.18263691 84.73183956 22.21165459 81.84186745 22.24365234 78.95166016 C22.24581253 78.08923203 22.24797272 77.22680389 22.25019836 76.33824158 C22.33439568 70.41560432 22.33439568 70.41560432 24.5625 68.1875 C26.9453125 67.7734375 26.9453125 67.7734375 29.6875 67.5625 C31.05261719 67.45035156 31.05261719 67.45035156 32.4453125 67.3359375 C33.14398438 67.28695312 33.84265625 67.23796875 34.5625 67.1875 C34.5625 66.1975 34.5625 65.2075 34.5625 64.1875 C35.27277344 64.05472656 35.98304688 63.92195313 36.71484375 63.78515625 C37.63394531 63.60855469 38.55304688 63.43195313 39.5 63.25 C40.41652344 63.07597656 41.33304687 62.90195312 42.27734375 62.72265625 C44.51539844 62.41035012 44.51539844 62.41035012 45.5625 61.1875 C45.60313832 59.52132885 45.605221 57.85361905 45.5625 56.1875 C42.8822768 55.29409227 41.1984875 55.04397909 38.4375 54.9765625 C37.25414062 54.93402344 37.25414062 54.93402344 36.046875 54.890625 C34.39085204 54.83854881 32.7345653 54.79427502 31.078125 54.7578125 C29.89476562 54.71140625 29.89476562 54.71140625 28.6875 54.6640625 C27.96820313 54.64424316 27.24890625 54.62442383 26.5078125 54.60400391 C24.05359674 54.07854054 23.30823419 52.93323419 21.5625 51.1875 C19.60882172 50.71984559 19.60882172 50.71984559 17.47265625 50.74609375 C16.68826172 50.71966797 15.90386719 50.69324219 15.09570312 50.66601562 C13.87270508 50.64571289 13.87270508 50.64571289 12.625 50.625 C11.01151762 50.59039792 9.3981843 50.54770006 7.78515625 50.49609375 C7.07109619 50.48376709 6.35703613 50.47144043 5.62133789 50.45874023 C3.22643123 50.14322484 1.61515222 49.44940605 -0.4375 48.1875 C-0.7675 47.5275 -1.0975 46.8675 -1.4375 46.1875 C-3.97324127 45.58375208 -6.51205172 45.22968874 -9.08984375 44.84765625 C-11.4375 44.1875 -11.4375 44.1875 -13.4375 41.1875 C-15.41266878 40.71367453 -15.41266878 40.71367453 -17.68359375 40.74609375 C-18.52083984 40.71966797 -19.35808594 40.69324219 -20.22070312 40.66601562 C-21.53458008 40.64571289 -21.53458008 40.64571289 -22.875 40.625 C-24.60305473 40.59051554 -26.33097103 40.54788259 -28.05859375 40.49609375 C-28.8261499 40.48376709 -29.59370605 40.47144043 -30.38452148 40.45874023 C-32.4375 40.1875 -32.4375 40.1875 -35.4375 38.1875 C-35.4375 37.5275 -35.4375 36.8675 -35.4375 36.1875 C-36.50291016 36.09662109 -36.50291016 36.09662109 -37.58984375 36.00390625 C-38.50894531 35.92011719 -39.42804688 35.83632813 -40.375 35.75 C-41.29152344 35.66878906 -42.20804687 35.58757812 -43.15234375 35.50390625 C-45.4375 35.1875 -45.4375 35.1875 -46.4375 34.1875 C-46.57865161 31.51691149 -46.47997107 28.86317762 -46.4375 26.1875 C-43.17204239 24.30358215 -40.15638239 23.69462033 -36.4375 23.1875 C-36.128125 22.053125 -35.81875 20.91875 -35.5 19.75 C-34.4375 16.1875 -34.4375 16.1875 -33.4375 15.1875 C-31.92584346 14.79601239 -30.40280368 14.44777543 -28.875 14.125 C-28.04871094 13.94839844 -27.22242188 13.77179688 -26.37109375 13.58984375 C-25.73300781 13.45707031 -25.09492188 13.32429688 -24.4375 13.1875 C-24.1075 10.8775 -23.7775 8.5675 -23.4375 6.1875 C-22.38949219 6.02314453 -22.38949219 6.02314453 -21.3203125 5.85546875 C-19.95519531 5.61763672 -19.95519531 5.61763672 -18.5625 5.375 C-17.20511719 5.14876953 -17.20511719 5.14876953 -15.8203125 4.91796875 C-13.09337522 4.35698699 -13.09337522 4.35698699 -11.4375 1.1875 C-7.60964707 -0.08845098 -3.9878343 0.00334831 0 0 Z M58.5625 66.1875 C58.27641069 69.14795499 58.18447914 71.8982713 58.22192383 74.85986328 C58.22148575 75.75748383 58.22104767 76.65510437 58.22059631 77.57992554 C58.22269155 80.55610676 58.24605713 83.53172931 58.26953125 86.5078125 C58.27512459 88.56761365 58.27939592 90.62741878 58.28239441 92.68722534 C58.29386377 98.11577318 58.32334895 103.54408125 58.35650635 108.97253418 C58.38716219 114.5090002 58.40089014 120.04550487 58.41601562 125.58203125 C58.44821664 136.45062633 58.49943822 147.31904325 58.5625 158.1875 C61.38890259 159.38236289 63.68809706 160.20473881 66.75 160.625 C68.1421875 160.9034375 68.1421875 160.9034375 69.5625 161.1875 C70.2225 162.1775 70.8825 163.1675 71.5625 164.1875 C74.61587582 164.68317744 74.61587582 164.68317744 78.21484375 164.6640625 C78.87078018 164.67964203 79.52671661 164.69522156 80.20252991 164.71127319 C82.301674 164.7588509 84.40048642 164.78655932 86.5 164.8125 C88.59570608 164.84903485 90.6912262 164.88973214 92.78675842 164.93515015 C94.69094012 164.97476495 96.59535678 165.00255626 98.49975586 165.02978516 C101.5625 165.1875 101.5625 165.1875 104.5625 166.1875 C105.5525 167.6725 105.5525 167.6725 106.5625 169.1875 C108.67187435 169.61902446 108.67187435 169.61902446 111.09765625 169.515625 C111.98904297 169.51046875 112.88042969 169.5053125 113.79882812 169.5 C114.73146484 169.479375 115.66410156 169.45875 116.625 169.4375 C118.02975586 169.42976563 118.02975586 169.42976563 119.46289062 169.421875 C123.84782261 169.76440001 123.84782261 169.76440001 127.5625 168.1875 C127.66306691 165.30143984 127.69865375 162.43927425 127.69189453 159.55273438 C127.69364685 158.64711258 127.69539917 157.74149078 127.69720459 156.8084259 C127.70162454 153.79934807 127.69868461 150.79032848 127.6953125 147.78125 C127.6959855 145.69999175 127.69695549 143.61873357 127.69821167 141.53747559 C127.69968884 137.16934462 127.69753348 132.80123407 127.69287109 128.43310547 C127.6871738 122.82035447 127.6904527 117.20765128 127.69644356 111.59490204 C127.70004866 107.29538611 127.69891082 102.99588162 127.69631577 98.69636536 C127.69564636 96.62620539 127.6964754 94.5560444 127.69879532 92.48588562 C127.70132102 89.59798414 127.69748242 86.71016122 127.69189453 83.82226562 C127.69493088 82.52558708 127.69493088 82.52558708 127.69802856 81.20271301 C128.05807016 77.38680847 128.05807016 77.38680847 126.5625 74.1875 C124.01280614 73.98514334 121.46557036 73.86834754 118.91015625 73.76171875 C118.13542969 73.57222656 117.36070312 73.38273437 116.5625 73.1875 C115.9025 71.8675 115.2425 70.5475 114.5625 69.1875 C103.6725 68.8575 92.7825 68.5275 81.5625 68.1875 C81.2325 67.1975 80.9025 66.2075 80.5625 65.1875 C77.29438198 63.55344099 73.71250593 64.00296243 70.125 64 C69.34833984 63.98775391 68.57167969 63.97550781 67.77148438 63.96289062 C63.85017691 63.95275805 61.89631255 63.9649583 58.5625 66.1875 Z " fill="currentColor" transform="translate(436.4375,385.8125)"/>
<path d="M0 0 C4.28879934 0.52669466 4.61114481 1.48614481 7.5625 4.4375 C10.83530842 5.67712157 14.17080266 6.58310296 17.5625 7.4375 C17.5625 8.4275 17.5625 9.4175 17.5625 10.4375 C18.27277344 10.57027344 18.98304688 10.70304687 19.71484375 10.83984375 C20.63394531 11.01644531 21.55304687 11.19304687 22.5 11.375 C23.41652344 11.54902344 24.33304688 11.72304688 25.27734375 11.90234375 C27.5625 12.4375 27.5625 12.4375 28.5625 13.4375 C28.82543056 17.46910191 28.85654844 18.99642734 26.5625 22.4375 C23.26018593 23.14668548 19.92867184 23.22171975 16.5625 23.4375 C16.5722435 24.03873184 16.581987 24.63996368 16.59202576 25.25941467 C16.66704001 33.8806702 16.20634721 42.45556205 15.72265625 51.05859375 C15.63515689 52.65079087 15.54787573 54.24299999 15.46080017 55.83522034 C15.27855762 59.15596008 15.09429582 62.47657929 14.90844727 65.79711914 C14.67214328 70.02050652 14.43998273 74.24410869 14.2092371 78.467803 C14.02954843 81.75128083 13.8481033 85.03465977 13.66610527 88.31801033 C13.57997935 89.87386816 13.49427032 91.42974913 13.40901375 92.98565483 C12.92374137 101.81521406 12.36091009 110.62950855 11.5625 119.4375 C12.68422607 119.62445435 12.68422607 119.62445435 13.82861328 119.81518555 C14.6895459 119.95867432 15.55047852 120.10216309 16.4375 120.25 C17.79488281 120.47623047 17.79488281 120.47623047 19.1796875 120.70703125 C21.5625 121.4375 21.5625 121.4375 23.5625 124.4375 C26.67419905 125.47473302 29.13490376 125.66651177 32.40234375 125.83203125 C33.54767578 125.90099609 34.69300781 125.96996094 35.87304688 126.04101562 C38.28647649 126.180077 40.70059132 126.30772697 43.11523438 126.42382812 C44.83516602 126.53307617 44.83516602 126.53307617 46.58984375 126.64453125 C47.63906006 126.7010083 48.68827637 126.75748535 49.76928711 126.81567383 C53.1547561 127.56934829 54.32230482 128.86198397 56.5625 131.4375 C60.24999947 132.99571327 64.36992082 132.54844379 68.3125 132.5 C69.35857422 132.49323242 69.35857422 132.49323242 70.42578125 132.48632812 C72.13805803 132.4746002 73.85029033 132.45666653 75.5625 132.4375 C76.92009605 114.57426582 77.98656111 96.69501139 78.98202515 78.80838013 C79.11790088 76.37264657 79.25526619 73.93699561 79.39419556 71.50143433 C80.13503072 58.4696275 80.80886199 45.49344127 80.5625 32.4375 C79.89138184 32.23616455 79.22026367 32.0348291 78.52880859 31.82739258 C71.8125 29.8125 71.8125 29.8125 69.5625 26.4375 C67.60864933 25.64761855 67.60864933 25.64761855 65.4375 25.25 C64.15875 24.981875 62.88 24.71375 61.5625 24.4375 C61 22.5 61 22.5 60.5625 20.4375 C62.22592837 18.77407163 64.3450709 19.07701903 66.625 18.875 C68.00365234 18.74931641 68.00365234 18.74931641 69.41015625 18.62109375 C70.12042969 18.56050781 70.83070313 18.49992187 71.5625 18.4375 C72.0575 16.9525 72.0575 16.9525 72.5625 15.4375 C79.1875 14.4375 79.1875 14.4375 82.5625 14.4375 C82.8925 13.4475 83.2225 12.4575 83.5625 11.4375 C84.26117187 11.32792969 84.95984375 11.21835937 85.6796875 11.10546875 C86.58976563 10.94691406 87.49984375 10.78835938 88.4375 10.625 C89.34242188 10.47417969 90.24734375 10.32335937 91.1796875 10.16796875 C93.90662478 9.60698699 93.90662478 9.60698699 95.5625 6.4375 C97.62109375 6.00390625 97.62109375 6.00390625 100 6 C100.78246094 5.98066406 101.56492187 5.96132813 102.37109375 5.94140625 C105.32093537 6.60919571 105.79996714 8.05315986 107.5625 10.4375 C110.03811805 11.55281954 110.03811805 11.55281954 112.75 12.1875 C114.10158203 12.55101562 114.10158203 12.55101562 115.48046875 12.921875 C116.51107422 13.17710937 116.51107422 13.17710937 117.5625 13.4375 C117.5625 14.4275 117.5625 15.4175 117.5625 16.4375 C120.8625 17.0975 124.1625 17.7575 127.5625 18.4375 C128.54734577 23.36172885 128.59592293 24.25104102 126.5625 28.4375 C123.5925 28.7675 120.6225 29.0975 117.5625 29.4375 C116.05289386 49.44308583 114.81275417 69.4564565 113.70263672 89.48754883 C113.4806525 93.48974534 113.25275734 97.49158267 113.02348137 101.4933672 C112.84385174 104.64458924 112.66808618 107.7960186 112.49335098 110.94751549 C112.41097382 112.42284331 112.32729935 113.89809943 112.24215317 115.37327003 C111.68424483 125.07386772 111.46111233 134.72282212 111.5625 144.4375 C113.02083333 144.875 114.47916667 145.3125 115.9375 145.75 C119.62929952 146.85753986 120.32474766 147.0808715 122.5625 150.4375 C124.57606374 150.92465252 126.59109363 151.40775563 128.6171875 151.83984375 C131.31166051 152.66766377 132.59051606 154.46551606 134.5625 156.4375 C136.5654692 157.0727003 136.5654692 157.0727003 138.75 157.5 C140.008125 157.809375 141.26625 158.11875 142.5625 158.4375 C142.8925 159.4275 143.2225 160.4175 143.5625 161.4375 C144.82707031 161.55867187 146.09164062 161.67984375 147.39453125 161.8046875 C149.05473198 161.97352147 150.71488589 162.14281633 152.375 162.3125 C153.20837891 162.39113281 154.04175781 162.46976563 154.90039062 162.55078125 C155.70283203 162.63457031 156.50527344 162.71835937 157.33203125 162.8046875 C158.07042236 162.87800293 158.80881348 162.95131836 159.56958008 163.02685547 C161.5625 163.4375 161.5625 163.4375 164.5625 165.4375 C164.2325 166.7575 163.9025 168.0775 163.5625 169.4375 C162.93601562 169.47488281 162.30953125 169.51226563 161.6640625 169.55078125 C160.84679687 169.61652344 160.02953125 169.68226563 159.1875 169.75 C157.96933594 169.83701172 157.96933594 169.83701172 156.7265625 169.92578125 C154.18328662 170.26740528 154.18328662 170.26740528 152.5625 173.4375 C150.28515625 174.0625 150.28515625 174.0625 147.625 174.4375 C143.71313372 174.99057682 142.27744445 175.65597654 139.5625 178.4375 C137.625 178.84375 137.625 178.84375 135.5625 178.9375 C132.4461562 179.10271529 132.4461562 179.10271529 130.0625 180.9375 C128.15389037 182.84610963 127.14617374 182.71027936 124.5 182.9375 C123.200625 183.1025 121.90125 183.2675 120.5625 183.4375 C119.9025 184.4275 119.2425 185.4175 118.5625 186.4375 C116.21484375 186.765625 116.21484375 186.765625 113.5 186.6875 C112.60152344 186.67203125 111.70304688 186.6565625 110.77734375 186.640625 C108.5625 186.4375 108.5625 186.4375 107.5625 185.4375 C107.22916667 183.10416667 106.89583333 180.77083333 106.5625 178.4375 C104.38176925 176.25676925 99.66756524 176.73592786 96.625 176.4375 C94.96969767 176.27439092 93.31472578 176.10788206 91.66015625 175.9375 C90.92289307 175.8653125 90.18562988 175.793125 89.42602539 175.71875 C87.5625 175.4375 87.5625 175.4375 85.5625 174.4375 C85.1484375 171.49609375 85.1484375 171.49609375 84.9375 167.875 C84.82535156 166.07869141 84.82535156 166.07869141 84.7109375 164.24609375 C84.66195312 163.31925781 84.61296875 162.39242187 84.5625 161.4375 C81.5925 160.4475 78.6225 159.4575 75.5625 158.4375 C75.0675 152.4975 75.0675 152.4975 74.5625 146.4375 C70.08116426 145.71493171 70.08116426 145.71493171 65.5625 145.4375 C65.2325 146.4275 64.9025 147.4175 64.5625 148.4375 C61.2625 148.7675 57.9625 149.0975 54.5625 149.4375 C54.2325 150.4275 53.9025 151.4175 53.5625 152.4375 C52.86382813 152.54707031 52.16515625 152.65664063 51.4453125 152.76953125 C50.53523437 152.92808594 49.62515625 153.08664062 48.6875 153.25 C47.78257812 153.40082031 46.87765625 153.55164063 45.9453125 153.70703125 C43.21837522 154.26801301 43.21837522 154.26801301 41.5625 157.4375 C38.56561133 157.7758584 36.45831193 157.97354567 33.5625 157.4375 C32.18548702 156.14932656 30.85605827 154.80945574 29.5625 153.4375 C27.22935622 152.56050269 24.89795393 151.88104842 22.48828125 151.24609375 C21.85277344 150.97925781 21.21726562 150.71242188 20.5625 150.4375 C20.2325 149.4475 19.9025 148.4575 19.5625 147.4375 C18.97235107 147.39786133 18.38220215 147.35822266 17.77416992 147.31738281 C15.0976653 147.12671182 12.4242508 146.90745209 9.75 146.6875 C8.82123047 146.625625 7.89246094 146.56375 6.93554688 146.5 C6.04287109 146.42265625 5.15019531 146.3453125 4.23046875 146.265625 C2.99719849 146.1713623 2.99719849 146.1713623 1.73901367 146.07519531 C-1.10998781 145.24046824 -1.71448181 143.78028826 -3.4375 141.4375 C-5.39291215 140.76233312 -5.39291215 140.76233312 -7.5625 140.71484375 C-8.35140625 140.65103516 -9.1403125 140.58722656 -9.953125 140.52148438 C-10.77296875 140.47314453 -11.5928125 140.42480469 -12.4375 140.375 C-14.06333381 140.27146813 -15.68846484 140.15604588 -17.3125 140.02734375 C-18.03179688 139.98472412 -18.75109375 139.94210449 -19.4921875 139.89819336 C-21.98552902 139.30771451 -22.82990191 138.41007866 -24.4375 136.4375 C-24.57138687 133.51427742 -24.52255706 130.84110946 -24.3190918 127.93725586 C-24.27076202 127.06840256 -24.22243225 126.19954926 -24.17263794 125.30436707 C-24.00862779 122.41930045 -23.82250158 119.53608332 -23.63671875 116.65234375 C-23.5188071 114.63717857 -23.4024415 112.62192238 -23.28755188 110.60658264 C-22.98047085 105.28118174 -22.6553901 99.95703802 -22.32568359 94.63299561 C-21.8041489 86.16614638 -21.30919338 77.6977135 -20.8152256 69.22921944 C-20.64144659 66.29468099 -20.4597752 63.36071878 -20.27677917 60.42674255 C-19.58689363 49.08057178 -19.28641763 37.80411101 -19.4375 26.4375 C-20.44417725 26.13549683 -20.44417725 26.13549683 -21.47119141 25.82739258 C-28.1875 23.8125 -28.1875 23.8125 -30.4375 20.4375 C-32.39135067 19.64761855 -32.39135067 19.64761855 -34.5625 19.25 C-35.84125 18.981875 -37.12 18.71375 -38.4375 18.4375 C-39 16.5 -39 16.5 -39.4375 14.4375 C-37.5418461 12.5418461 -34.14260972 13.07119851 -31.56640625 12.9140625 C-29.05277629 12.60876245 -29.05277629 12.60876245 -27.4375 9.4375 C-25.16015625 8.8125 -25.16015625 8.8125 -22.5 8.4375 C-18.58813372 7.88442318 -17.15244445 7.21902346 -14.4375 4.4375 C-12.5 4.03125 -12.5 4.03125 -10.4375 3.9375 C-7.28310723 3.76585965 -7.28310723 3.76585965 -4.875 1.875 C-3.4375 0.4375 -3.4375 0.4375 0 0 Z " fill="currentColor" transform="translate(806.4375,372.5625)"/>
<path d="M0 0 C1.04994141 -0.01224609 2.09988281 -0.02449219 3.18164062 -0.03710938 C4.69854492 -0.04000977 4.69854492 -0.04000977 6.24609375 -0.04296875 C7.16962646 -0.04707764 8.09315918 -0.05118652 9.04467773 -0.05541992 C11.67381713 0.1982399 13.30542668 0.85360965 15.5625 2.1875 C15.5625 2.8475 15.5625 3.5075 15.5625 4.1875 C16.93535156 4.26097656 16.93535156 4.26097656 18.3359375 4.3359375 C19.52445313 4.41070312 20.71296875 4.48546875 21.9375 4.5625 C23.71253906 4.66691406 23.71253906 4.66691406 25.5234375 4.7734375 C28.5625 5.1875 28.5625 5.1875 30.5625 7.1875 C30.8925 9.1675 31.2225 11.1475 31.5625 13.1875 C35.8525 13.8475 40.1425 14.5075 44.5625 15.1875 C44.8925 17.4975 45.2225 19.8075 45.5625 22.1875 C49.8525 22.8475 54.1425 23.5075 58.5625 24.1875 C58.995625 25.8890625 58.995625 25.8890625 59.4375 27.625 C59.80875 28.800625 60.18 29.97625 60.5625 31.1875 C62.97360809 32.39305405 64.87942014 32.46910978 67.5625 32.6875 C72.34027778 33.07638889 72.34027778 33.07638889 74.5625 34.1875 C74.2325 35.5075 73.9025 36.8275 73.5625 38.1875 C68.9425 38.8475 64.3225 39.5075 59.5625 40.1875 C59.2325 41.1775 58.9025 42.1675 58.5625 43.1875 C57.65886719 43.29707031 56.75523437 43.40664063 55.82421875 43.51953125 C54.64472656 43.67808594 53.46523438 43.83664062 52.25 44 C51.07824219 44.15082031 49.90648437 44.30164063 48.69921875 44.45703125 C45.59054393 44.88980199 45.59054393 44.88980199 44.03125 46.71875 C41.75769201 48.99230799 39.50713566 48.70660561 36.375 48.875 C34.74498047 48.97361328 34.74498047 48.97361328 33.08203125 49.07421875 C31.83486328 49.13029297 31.83486328 49.13029297 30.5625 49.1875 C30.2325 50.1775 29.9025 51.1675 29.5625 52.1875 C25.43617183 53.93325422 20.44789347 53.68365618 16.1875 52.5625 C13.76168866 50.50989041 13.97952386 48.23749807 13.5625 45.1875 C12.71945312 45.05472656 11.87640625 44.92195313 11.0078125 44.78515625 C9.91210938 44.60855469 8.81640625 44.43195313 7.6875 44.25 C6.59695313 44.07597656 5.50640625 43.90195312 4.3828125 43.72265625 C1.5625 43.1875 1.5625 43.1875 -0.4375 42.1875 C-0.4375 39.8775 -0.4375 37.5675 -0.4375 35.1875 C-1.26894531 35.13851562 -2.10039063 35.08953125 -2.95703125 35.0390625 C-4.04371094 34.96429688 -5.13039063 34.88953125 -6.25 34.8125 C-7.32894531 34.74289062 -8.40789062 34.67328125 -9.51953125 34.6015625 C-12.4375 34.1875 -12.4375 34.1875 -15.4375 32.1875 C-16.125 29.0625 -16.125 29.0625 -16.4375 26.1875 C-17.66726563 26.02314453 -17.66726563 26.02314453 -18.921875 25.85546875 C-20.53835938 25.61763672 -20.53835938 25.61763672 -22.1875 25.375 C-23.25484375 25.22417969 -24.3221875 25.07335937 -25.421875 24.91796875 C-28.4375 24.1875 -28.4375 24.1875 -32.4375 21.1875 C-36.0675 21.1875 -39.6975 21.1875 -43.4375 21.1875 C-43.1075 35.3775 -42.7775 49.5675 -42.4375 64.1875 C-36.4975 65.1775 -36.4975 65.1775 -30.4375 66.1875 C-29.7775 66.5175 -29.1175 66.8475 -28.4375 67.1875 C-28.4375 68.1775 -28.4375 69.1675 -28.4375 70.1875 C-29.11296875 70.32027344 -29.7884375 70.45304688 -30.484375 70.58984375 C-31.82242188 70.85474609 -31.82242188 70.85474609 -33.1875 71.125 C-34.06921875 71.29902344 -34.9509375 71.47304688 -35.859375 71.65234375 C-38.06400703 72.10997191 -40.25310057 72.64140014 -42.4375 73.1875 C-42.4375 85.7275 -42.4375 98.2675 -42.4375 111.1875 C-35.09369858 111.43651492 -35.09369858 111.43651492 -27.74926758 111.66552734 C-26.82782959 111.7011377 -25.9063916 111.73674805 -24.95703125 111.7734375 C-24.01964111 111.8048584 -23.08225098 111.8362793 -22.11645508 111.86865234 C-17.89050876 112.37162199 -14.95865079 113.84006614 -11.4375 116.1875 C-8.50292495 116.40504036 -5.65527282 116.51253875 -2.71875 116.53125 C-1.86446411 116.5458728 -1.01017822 116.56049561 -0.13000488 116.57556152 C2.60078274 116.62207857 5.33149722 116.65627481 8.0625 116.6875 C11.6565215 116.72859259 15.2500265 116.78223627 18.84375 116.84375 C20.08602356 116.85166565 20.08602356 116.85166565 21.35339355 116.85974121 C25.25454962 116.92762463 27.2446624 116.97560827 30.5625 119.1875 C30.5625 119.8475 30.5625 120.5075 30.5625 121.1875 C31.36993652 121.21255615 32.17737305 121.2376123 33.00927734 121.26342773 C36.65218917 121.37915487 40.29482726 121.50198635 43.9375 121.625 C45.20851563 121.66431641 46.47953125 121.70363281 47.7890625 121.74414062 C49.00078125 121.78603516 50.2125 121.82792969 51.4609375 121.87109375 C52.58161621 121.90775146 53.70229492 121.94440918 54.85693359 121.98217773 C57.5625 122.1875 57.5625 122.1875 59.5625 123.1875 C59.2325 124.5075 58.9025 125.8275 58.5625 127.1875 C57.20705078 127.35185547 57.20705078 127.35185547 55.82421875 127.51953125 C54.64472656 127.67808594 53.46523438 127.83664062 52.25 128 C51.07824219 128.15082031 49.90648437 128.30164063 48.69921875 128.45703125 C45.59054393 128.88980199 45.59054393 128.88980199 44.03125 130.71875 C41.75769201 132.99230799 39.50713566 132.70660561 36.375 132.875 C34.74498047 132.97361328 34.74498047 132.97361328 33.08203125 133.07421875 C31.83486328 133.13029297 31.83486328 133.13029297 30.5625 133.1875 C30.2325 134.1775 29.9025 135.1675 29.5625 136.1875 C27.60450486 136.52281415 25.64609226 136.85569143 23.6875 137.1875 C22.59695313 137.373125 21.50640625 137.55875 20.3828125 137.75 C17.5625 138.1875 17.5625 138.1875 15.5625 138.1875 C15.2325 139.1775 14.9025 140.1675 14.5625 141.1875 C9.9215451 142.09111271 5.40355153 142.38058179 0.6875 142.375 C-0.36932983 142.3737915 -0.36932983 142.3737915 -1.44750977 142.37255859 C-6.45670878 142.31347009 -10.73939434 141.91333473 -15.4375 140.1875 C-15.7675 139.5275 -16.0975 138.8675 -16.4375 138.1875 C-19.72460506 137.57626146 -23.01463685 137.22691785 -26.3359375 136.84765625 C-29.4375 136.1875 -29.4375 136.1875 -30.80322266 134.67028809 C-33.09270714 132.59302725 -34.62911252 132.80939326 -37.6875 132.80273438 C-38.75871094 132.79262329 -39.82992187 132.78251221 -40.93359375 132.77209473 C-42.08988281 132.77511597 -43.24617187 132.77813721 -44.4375 132.78125 C-45.62472656 132.77041382 -46.81195312 132.75957764 -48.03515625 132.74841309 C-51.83599291 132.71406667 -55.63652831 132.69853818 -59.4375 132.6875 C-64.43779202 132.67297895 -69.43740606 132.63938739 -74.4375 132.59375 C-75.59378906 132.59677124 -76.75007812 132.59979248 -77.94140625 132.60290527 C-79.01261719 132.59279419 -80.08382812 132.58268311 -81.1875 132.57226562 C-82.60289062 132.56918396 -82.60289062 132.56918396 -84.046875 132.56604004 C-86.87894062 132.11760073 -87.59883474 131.30265931 -89.4375 129.1875 C-92.8318445 128.22420687 -96.15279328 128.02687663 -99.66796875 127.90625 C-100.63541016 127.86886719 -101.60285156 127.83148437 -102.59960938 127.79296875 C-104.62824102 127.72224821 -106.6568871 127.65194039 -108.68554688 127.58203125 C-109.64912109 127.54464844 -110.61269531 127.50726562 -111.60546875 127.46875 C-112.48485107 127.43845703 -113.3642334 127.40816406 -114.27026367 127.37695312 C-116.4375 127.1875 -116.4375 127.1875 -118.4375 126.1875 C-117.734375 124.21875 -117.734375 124.21875 -116.4375 122.1875 C-114.265625 121.71875 -114.265625 121.71875 -111.6875 121.6875 C-107.97052878 121.47570677 -106.70713526 121.37507235 -103.5625 119.1875 C-100.08615627 116.96264002 -98.29522862 116.82433846 -94.2421875 116.5625 C-92.61385986 116.45035156 -92.61385986 116.45035156 -90.95263672 116.3359375 C-90.1226416 116.28695312 -89.29264648 116.23796875 -88.4375 116.1875 C-88.43972061 115.04966568 -88.44194122 113.91183136 -88.44422913 112.73951721 C-88.46445933 102.04119251 -88.47947155 91.34287166 -88.48931217 80.6445322 C-88.49454131 75.14379138 -88.50163951 69.64306595 -88.51293945 64.14233398 C-88.52376725 58.8385344 -88.5297766 53.53474965 -88.53237724 48.23093987 C-88.53423169 46.20264388 -88.53785267 44.17434874 -88.54323006 42.14605904 C-88.55043906 39.31553486 -88.551491 36.48507282 -88.55102539 33.65454102 C-88.55462067 32.80721909 -88.55821594 31.95989716 -88.56192017 31.0868988 C-88.55155216 25.30155216 -88.55155216 25.30155216 -87.4375 24.1875 C-84.14476348 23.68860053 -80.84480902 23.28595232 -77.5390625 22.8828125 C-74.46081574 22.48334485 -74.46081574 22.48334485 -72.91015625 20.66015625 C-70.63359731 18.38359731 -68.38673467 18.66864165 -65.25 18.5 C-63.61998047 18.40138672 -63.61998047 18.40138672 -61.95703125 18.30078125 C-60.70986328 18.24470703 -60.70986328 18.24470703 -59.4375 18.1875 C-58.9425 16.7025 -58.9425 16.7025 -58.4375 15.1875 C-56.47950486 14.85218585 -54.52109226 14.51930857 -52.5625 14.1875 C-50.92667969 13.9090625 -50.92667969 13.9090625 -49.2578125 13.625 C-46.4375 13.1875 -46.4375 13.1875 -44.4375 13.1875 C-44.1075 12.1975 -43.7775 11.2075 -43.4375 10.1875 C-42.53386719 10.07792969 -41.63023437 9.96835937 -40.69921875 9.85546875 C-39.51972656 9.69691406 -38.34023438 9.53835938 -37.125 9.375 C-35.95324219 9.22417969 -34.78148437 9.07335937 -33.57421875 8.91796875 C-30.46554393 8.48519801 -30.46554393 8.48519801 -28.90625 6.65625 C-26.63269201 4.38269201 -24.38213566 4.66839439 -21.25 4.5 C-20.16332031 4.43425781 -19.07664062 4.36851562 -17.95703125 4.30078125 C-17.12558594 4.26339844 -16.29414062 4.22601563 -15.4375 4.1875 C-15.1075 3.1975 -14.7775 2.2075 -14.4375 1.1875 C-9.71782168 -0.38572611 -4.94260529 0.003023 0 0 Z " fill="currentColor" transform="translate(700.4375,447.8125)"/>
<path d="M0 0 C2.27734375 -0.43359375 2.27734375 -0.43359375 4.9375 -0.4375 C5.81277344 -0.45683594 6.68804688 -0.47617187 7.58984375 -0.49609375 C10 0 10 0 11.30761719 1.98144531 C12.85029511 4.22389157 12.85029511 4.22389157 15.50512695 4.62182617 C16.98178833 4.70654175 16.98178833 4.70654175 18.48828125 4.79296875 C19.58132568 4.86515625 20.67437012 4.93734375 21.80053711 5.01171875 C22.95948486 5.06972656 24.11843262 5.12773438 25.3125 5.1875 C26.48627197 5.26226563 27.66004395 5.33703125 28.86938477 5.4140625 C32.24550523 5.62706989 35.62211271 5.81745391 39 6 C41.81319358 6.15820839 44.62524147 6.32534394 47.4375 6.5 C48.98244141 6.57734375 48.98244141 6.57734375 50.55859375 6.65625 C53 7 53 7 56 9 C56.1875 12.625 56.1875 12.625 56 16 C59.17656037 17.05885346 61.71959888 17.23188821 65.05859375 17.39453125 C66.24904297 17.46349609 67.43949219 17.53246094 68.66601562 17.60351562 C71.17582308 17.74258833 73.68629025 17.87023628 76.19726562 17.98632812 C77.98487305 18.09557617 77.98487305 18.09557617 79.80859375 18.20703125 C80.89970459 18.2635083 81.99081543 18.31998535 83.11499023 18.37817383 C86.58128715 19.12528885 87.70634218 20.37363298 90 23 C92.32627776 24.09392853 92.32627776 24.09392853 94.75 24.75 C95.94882812 25.11351562 95.94882812 25.11351562 97.171875 25.484375 C97.77515625 25.65453125 98.3784375 25.8246875 99 26 C99 27.32 99 28.64 99 30 C98.31292969 30.10957031 97.62585938 30.21914063 96.91796875 30.33203125 C96.01691406 30.49058594 95.11585938 30.64914062 94.1875 30.8125 C93.29417969 30.96332031 92.40085937 31.11414063 91.48046875 31.26953125 C88.74899258 32.07391872 87.94074932 33.01671371 86 35 C83.95437763 35.42892082 82.02256254 35.49897443 79.9375 35.59375 C77.89205194 35.83224129 77.89205194 35.83224129 76.57421875 37.48828125 C74.40558307 39.57081725 72.76953957 39.49548444 69.8125 39.6875 C68.91144531 39.75324219 68.01039063 39.81898438 67.08203125 39.88671875 C66.05142578 39.94279297 66.05142578 39.94279297 65 40 C64.67 40.99 64.34 41.98 64 43 C60.7 43 57.4 43 54 43 C53.505 41.02 53.505 41.02 53 39 C52.32453125 38.90203125 51.6490625 38.8040625 50.953125 38.703125 C45.54643265 37.79680085 42.75105744 37.13909786 39 33 C36.67126625 32.31744011 34.33817209 31.64949225 32 31 C31.01 29.515 31.01 29.515 30 28 C27.91828596 27.0988739 27.91828596 27.0988739 25.5625 26.5 C21.28242758 25.31540006 21.28242758 25.31540006 19.64228821 23.48377991 C17.5373991 21.58204783 16.33945749 21.5596142 13.53198242 21.41577148 C12.17993965 21.33570107 12.17993965 21.33570107 10.80058289 21.25401306 C9.82869522 21.21014969 8.85680756 21.16628632 7.85546875 21.12109375 C6.85292557 21.0634938 5.85038239 21.00589386 4.81745911 20.94654846 C1.6080429 20.76360558 -1.60194825 20.59919283 -4.8125 20.4375 C-8.01215878 20.27026206 -11.21142133 20.0988831 -14.4103241 19.91773987 C-16.40099875 19.80558876 -18.39215854 19.70166417 -20.38374329 19.60704041 C-25.25377554 19.3384769 -29.42495158 18.8631311 -34 17 C-34 15.68 -34 14.36 -34 13 C-33.31292969 12.89042969 -32.62585938 12.78085937 -31.91796875 12.66796875 C-31.01691406 12.50941406 -30.11585938 12.35085938 -29.1875 12.1875 C-28.29417969 12.03667969 -27.40085937 11.88585937 -26.48046875 11.73046875 C-23.74800334 10.92578996 -22.94388983 9.98106805 -21 8 C-19.02734375 7.59375 -19.02734375 7.59375 -16.9375 7.5 C-14.9884375 7.2525 -14.9884375 7.2525 -13 7 C-12.34 6.01 -11.68 5.02 -11 4 C-8.67969414 3.5497914 -6.45328854 3.49818007 -4.09375 3.40625 C-3.05734375 3.20515625 -3.05734375 3.20515625 -2 3 C-1.34 2.01 -0.68 1.02 0 0 Z " fill="currentColor" transform="translate(815,533)"/>
<path d="M0 0 C0 4.62 0 9.24 0 14 C-7.5 15.25 -7.5 15.25 -12 13 C-12 9.04 -12 5.08 -12 1 C-7.01222852 -1.49388574 -5.33016752 -0.88836125 0 0 Z " fill="currentColor" transform="translate(466,583)"/>
<path d="M0 0 C0 0.99 0 1.98 0 3 C-2.58753156 4.29376578 -4.54958985 4.16832397 -7.4375 4.1875 C-8.40558594 4.20167969 -9.37367188 4.21585937 -10.37109375 4.23046875 C-13 4 -13 4 -16 2 C-15.67 1.01 -15.34 0.02 -15 -1 C-10.22720437 -3.01925969 -4.35840822 -2.78938126 0 0 Z " fill="currentColor" transform="translate(701,506)"/>
<path d="M0 0 C0.87527344 -0.01417969 1.75054688 -0.02835938 2.65234375 -0.04296875 C5.0625 0.1875 5.0625 0.1875 8.0625 2.1875 C7.7325 3.1775 7.4025 4.1675 7.0625 5.1875 C2.53508828 6.69663724 -2.00176798 6.96179281 -6.4375 5.1875 C-6.9325 4.8575 -7.4275 4.5275 -7.9375 4.1875 C-7.6075 3.1975 -7.2775 2.2075 -6.9375 1.1875 C-4.47380468 -0.04434766 -2.7480499 0.02017658 0 0 Z " fill="currentColor" transform="translate(766.9375,564.8125)"/>
<path d="M0 0 C0.89203125 0.10183594 1.7840625 0.20367188 2.703125 0.30859375 C3.37859375 0.39238281 4.0540625 0.47617187 4.75 0.5625 C4.75 1.8825 4.75 3.2025 4.75 4.5625 C2.14080172 5.86709914 0.16057385 5.6951594 -2.75 5.6875 C-3.7296875 5.69007813 -4.709375 5.69265625 -5.71875 5.6953125 C-8.25 5.5625 -8.25 5.5625 -10.25 4.5625 C-9.92 3.2425 -9.59 1.9225 -9.25 0.5625 C-5.98086376 -0.46865279 -3.38958652 -0.4013984 0 0 Z " fill="currentColor" transform="translate(784.25,560.4375)"/>
<path d="M0 0 C0.9796875 -0.00257813 1.959375 -0.00515625 2.96875 -0.0078125 C5.5 0.125 5.5 0.125 7.5 1.125 C7.5 2.445 7.5 3.765 7.5 5.125 C3.05491427 6.54742743 -1.57932998 6.91296719 -5.9375 5.125 C-6.453125 4.795 -6.96875 4.465 -7.5 4.125 C-7.5 3.135 -7.5 2.145 -7.5 1.125 C-4.89080172 -0.17959914 -2.91057385 -0.0076594 0 0 Z " fill="currentColor" transform="translate(678.5,508.875)"/>
<path d="M0 0 C1.60875 -0.00386719 1.60875 -0.00386719 3.25 -0.0078125 C6 0.125 6 0.125 8 1.125 C8 2.115 8 3.105 8 4.125 C5.26922124 5.49038938 3.04439633 5.25731826 0 5.25 C-1.60875 5.25386719 -1.60875 5.25386719 -3.25 5.2578125 C-6 5.125 -6 5.125 -8 4.125 C-8 3.135 -8 2.145 -8 1.125 C-5.26922124 -0.24038938 -3.04439633 -0.00731826 0 0 Z " fill="currentColor" transform="translate(708,499.875)"/>
<path d="M0 0 C1.79244141 0.01740234 1.79244141 0.01740234 3.62109375 0.03515625 C5.41740234 0.04869141 5.41740234 0.04869141 7.25 0.0625 C8.17683594 0.07410156 9.10367188 0.08570313 10.05859375 0.09765625 C10.62109375 2.03515625 10.62109375 2.03515625 11.05859375 4.09765625 C10.05859375 5.09765625 10.05859375 5.09765625 7.1171875 5.1953125 C5.32474609 5.17791016 5.32474609 5.17791016 3.49609375 5.16015625 C1.69978516 5.14662109 1.69978516 5.14662109 -0.1328125 5.1328125 C-1.05964844 5.12121094 -1.98648438 5.10960937 -2.94140625 5.09765625 C-3.50390625 3.16015625 -3.50390625 3.16015625 -3.94140625 1.09765625 C-2.94140625 0.09765625 -2.94140625 0.09765625 0 0 Z " fill="currentColor" transform="translate(792.94140625,555.90234375)"/>
<path d="M0 0 C0.33 1.32 0.66 2.64 1 4 C-1.36613456 5.18306728 -2.86780736 5.13354608 -5.5 5.125 C-6.2940625 5.12757813 -7.088125 5.13015625 -7.90625 5.1328125 C-10 5 -10 5 -12 4 C-11.6875 2.0625 -11.6875 2.0625 -11 0 C-6.94952424 -1.35015859 -4.2079832 -0.62084998 0 0 Z " fill="currentColor" transform="translate(634,440)"/>
<path d="M0 0 C1.45823212 -0.0270043 2.91660675 -0.04639787 4.375 -0.0625 C5.18710937 -0.07410156 5.99921875 -0.08570313 6.8359375 -0.09765625 C9 0 9 0 11 1 C11 2.32 11 3.64 11 5 C7.98131566 6.50934217 5.32702771 6.17510672 2 6 C1.01 5.34 0.02 4.68 -1 4 C-0.67 2.68 -0.34 1.36 0 0 Z " fill="currentColor" transform="translate(770,550)"/>
<path d="M0 0 C1.258125 -0.04125 2.51625 -0.0825 3.8125 -0.125 C4.52019531 -0.14820313 5.22789062 -0.17140625 5.95703125 -0.1953125 C8 0 8 0 11 2 C10.34 3.32 9.68 4.64 9 6 C1.25 6.125 1.25 6.125 -1 5 C-0.67 3.35 -0.34 1.7 0 0 Z " fill="currentColor" transform="translate(759,554)"/>
<path d="M0 0 C1.22589844 0.15275391 1.22589844 0.15275391 2.4765625 0.30859375 C3.41628906 0.43427734 3.41628906 0.43427734 4.375 0.5625 C4.9375 2.5 4.9375 2.5 5.375 4.5625 C4.375 5.5625 4.375 5.5625 2.37890625 5.6953125 C1.57324219 5.69273437 0.76757812 5.69015625 -0.0625 5.6875 C-0.86558594 5.69007813 -1.66867187 5.69265625 -2.49609375 5.6953125 C-4.625 5.5625 -4.625 5.5625 -6.625 4.5625 C-6.625 3.2425 -6.625 1.9225 -6.625 0.5625 C-4.10446405 -0.69776798 -2.7707902 -0.35624445 0 0 Z " fill="currentColor" transform="translate(832.625,528.4375)"/>
<path d="M0 0 C0.5625 1.9375 0.5625 1.9375 1 4 C0 5 0 5 -1.99609375 5.1328125 C-2.80175781 5.13023437 -3.60742188 5.12765625 -4.4375 5.125 C-5.24058594 5.12757813 -6.04367187 5.13015625 -6.87109375 5.1328125 C-9 5 -9 5 -11 4 C-10.625 2.0625 -10.625 2.0625 -10 0 C-6.7169902 -1.6415049 -3.57454967 -0.51888624 0 0 Z " fill="currentColor" transform="translate(757,559)"/>
<path d="M0 0 C0 1.32 0 2.64 0 4 C-1 5 -1 5 -3.06640625 5.09765625 C-3.89011719 5.08605469 -4.71382813 5.07445312 -5.5625 5.0625 C-6.38878906 5.05347656 -7.21507812 5.04445313 -8.06640625 5.03515625 C-8.70449219 5.02355469 -9.34257812 5.01195312 -10 5 C-10.33 3.68 -10.66 2.36 -11 1 C-6.8204355 -1.78637633 -4.85331323 -0.79562512 0 0 Z " fill="currentColor" transform="translate(294,521)"/>
<path d="M0 0 C0.66 0.33 1.32 0.66 2 1 C2 2.32 2 3.64 2 5 C-0.98594424 6.49297212 -3.70853624 6.11755228 -7 6 C-7.66 5.67 -8.32 5.34 -9 5 C-9 3.68 -9 2.36 -9 1 C-6.01405576 -0.49297212 -3.29146376 -0.11755228 0 0 Z " fill="currentColor" transform="translate(378,525)"/>
<path d="M0 0 C0.66 0.33 1.32 0.66 2 1 C2 2.32 2 3.64 2 5 C-0.98594424 6.49297212 -3.70853624 6.11755228 -7 6 C-7.66 5.67 -8.32 5.34 -9 5 C-9 3.68 -9 2.36 -9 1 C-6.01405576 -0.49297212 -3.29146376 -0.11755228 0 0 Z " fill="currentColor" transform="translate(303,525)"/>
<path d="M0 0 C1.37478516 0.01740234 1.37478516 0.01740234 2.77734375 0.03515625 C3.69644531 0.04417969 4.61554688 0.05320312 5.5625 0.0625 C6.27277344 0.07410156 6.98304688 0.08570313 7.71484375 0.09765625 C8.27734375 2.03515625 8.27734375 2.03515625 8.71484375 4.09765625 C7.71484375 5.09765625 7.71484375 5.09765625 5.4296875 5.1953125 C4.05490234 5.17791016 4.05490234 5.17791016 2.65234375 5.16015625 C1.73324219 5.15113281 0.81414062 5.14210938 -0.1328125 5.1328125 C-0.84308594 5.12121094 -1.55335938 5.10960937 -2.28515625 5.09765625 C-2.84765625 3.16015625 -2.84765625 3.16015625 -3.28515625 1.09765625 C-2.28515625 0.09765625 -2.28515625 0.09765625 0 0 Z " fill="currentColor" transform="translate(451.28515625,381.90234375)"/>
<path d="M0 0 C1.23556641 0.01740234 1.23556641 0.01740234 2.49609375 0.03515625 C3.32238281 0.04417969 4.14867187 0.05320312 5 0.0625 C5.63808594 0.07410156 6.27617187 0.08570313 6.93359375 0.09765625 C7.49609375 2.03515625 7.49609375 2.03515625 7.93359375 4.09765625 C6.93359375 5.09765625 6.93359375 5.09765625 4.8671875 5.1953125 C4.04347656 5.18371094 3.21976562 5.17210937 2.37109375 5.16015625 C1.54480469 5.15113281 0.71851563 5.14210938 -0.1328125 5.1328125 C-0.77089844 5.12121094 -1.40898437 5.10960937 -2.06640625 5.09765625 C-2.62890625 3.16015625 -2.62890625 3.16015625 -3.06640625 1.09765625 C-2.06640625 0.09765625 -2.06640625 0.09765625 0 0 Z " fill="currentColor" transform="translate(447.06640625,577.90234375)"/>
</svg>
